<svg width="427" height="305" viewBox="0 0 427 305" fill="none" xmlns="http://www.w3.org/2000/svg">
<g style="mix-blend-mode:multiply" opacity="0.8">
<path d="M21 136.751L70.9976 108L121 136.751V194.249L70.9976 223L21 194.249V136.751Z" fill="#EDED69"/>
</g>
<g style="mix-blend-mode:multiply" opacity="0.8">
<path d="M129 249.502L161 231L193 249.502V286.498L161 305L129 286.498V249.502Z" fill="#90CBBB"/>
</g>
<path d="M36.1885 1.31587C53.9026 -3.59531 71.7568 5.78146 84.2626 20.4581C96.7685 35.1348 104.906 54.5899 112.853 73.6848C120.801 92.7796 129.008 112.197 141.604 126.779C157.199 144.793 179.211 154.169 201.394 152.188C220.388 150.5 238.742 141.019 257.626 137.255C276.509 133.491 297.982 137.075 308.329 155.724C314.547 166.94 315.606 181.503 318.036 195.033C320.465 208.562 325.313 222.765 335.59 227.894C343.057 231.62 351.835 229.724 360.022 227.401C383.094 220.77 405.245 211.54 426 199.906" stroke="#E9E9E9" stroke-width="0.5" stroke-miterlimit="10"/>
<path d="M34.5591 3.07933C51.6235 -1.1113 68.8878 8.23703 81.1337 22.5534C93.3797 36.8698 101.637 55.813 109.754 74.1873C117.872 92.5615 126.169 111.258 138.855 125.034C151.903 139.359 170.404 148.199 190.308 149.619C193.259 149.826 196.221 149.848 199.175 149.685C211.871 148.983 224.227 145.077 236.673 141.711C242.583 140.034 248.591 138.683 254.667 137.663C263.789 136.158 273.146 136.54 282.098 138.782C291.614 141.342 300.092 146.48 305.67 155.392C312.168 165.698 313.667 179.038 316.666 191.553C317.852 196.859 319.583 202.041 321.834 207.026C324.973 213.777 329.292 219.532 335.33 222.48C342.838 226.159 351.555 224.595 359.642 222.717C360.882 222.433 362.121 222.13 363.361 221.826C371.658 219.788 379.825 217.427 388.053 214.611C400.981 210.205 413.429 204.62 425.22 197.934" stroke="#E9E9E9" stroke-width="0.5" stroke-miterlimit="10"/>
<path d="M32.8396 4.87132C49.2342 1.42022 65.9287 10.7306 77.8948 24.6962C90.0308 38.823 98.378 57.0361 106.655 74.7183C114.933 92.4004 123.35 110.339 136.106 123.318C150.101 137.606 169.095 145.125 188.089 146.888C191.023 147.147 193.969 147.255 196.916 147.21C209.491 146.945 221.647 143.835 233.903 141.18C239.757 139.839 245.684 138.804 251.658 138.08C260.808 137.019 270.087 137.605 279.009 139.806C288.595 142.29 297.113 146.964 302.941 155.089C309.698 164.494 311.758 176.602 315.197 188.083C316.635 193.019 318.577 197.811 320.995 202.39C324.384 208.676 328.862 214.175 334.99 217.095C342.538 220.717 351.195 219.494 359.172 218.043L362.831 217.361C370.988 215.796 378.926 213.995 387.043 211.672C400.167 207.972 412.733 202.682 424.431 195.934" stroke="#E9E9E9" stroke-width="0.5" stroke-miterlimit="10"/>
<path d="M31.1602 6.65373C46.905 3.92319 63.0097 13.2051 74.7158 26.8105C86.6619 40.6623 95.1191 58.2686 103.536 75.2397C111.954 92.2108 120.531 109.371 133.347 121.602C147.662 135.226 166.885 141.958 185.959 144.148C188.898 144.47 191.817 144.669 194.736 144.726C207.192 144.906 219.148 142.593 231.204 140.659C237.004 139.659 242.852 138.937 248.728 138.497C257.892 137.888 267.099 138.675 276 140.83C285.656 143.228 294.234 147.466 300.302 154.776C307.299 163.309 309.878 174.175 313.827 184.623C315.526 189.179 317.675 193.572 320.245 197.744C323.874 203.585 328.532 208.818 334.72 211.71C342.298 215.275 350.905 214.393 358.772 213.398L362.371 212.924C370.368 211.852 378.076 210.601 386.103 208.771C399.355 205.774 412.007 200.763 423.571 193.933" stroke="#E9E9E9" stroke-width="0.5" stroke-miterlimit="10"/>
<path d="M29.4805 8.4362C44.5555 6.4357 60.1004 15.6797 71.5466 28.9248C83.3027 42.5111 91.8699 59.4917 100.457 75.7517C109.044 92.0117 117.751 108.471 130.617 119.886C145.232 132.856 164.736 138.848 183.81 141.408C186.739 141.806 189.648 142.091 192.537 142.242C204.883 142.897 216.629 141.351 228.525 140.128C234.203 139.54 239.951 139.019 245.809 138.915C254.976 138.764 264.124 139.752 273.02 141.854C282.737 144.176 291.384 147.912 297.672 154.463C304.97 162.048 308.029 171.738 312.487 181.162C314.445 185.331 316.787 189.329 319.485 193.108C323.364 198.493 328.202 203.462 334.48 206.315C342.098 209.823 350.645 209.292 358.402 208.742L361.941 208.477C369.798 207.88 377.286 207.188 385.203 205.851C398.581 203.586 411.361 198.857 422.821 191.933" stroke="#E9E9E9" stroke-width="0.5" stroke-miterlimit="10"/>
<path d="M27.8113 10.209C42.2365 8.93858 57.1816 18.1542 68.3479 31.0674C79.9141 44.3408 88.6012 60.7336 97.3384 76.292C106.075 91.8504 114.953 107.579 127.848 118.189C142.773 130.514 162.537 135.672 181.621 138.687C184.54 139.151 187.429 139.521 190.298 139.777C202.524 140.886 214.07 140.118 225.746 139.625C231.334 139.379 237.002 139.18 242.8 139.35C251.947 139.661 261.037 140.849 269.932 142.896C279.708 145.134 288.445 148.405 294.923 154.169C302.491 160.882 306.05 169.339 311.008 177.711C313.254 181.487 315.811 185.088 318.656 188.481C322.774 193.421 327.792 198.105 334.12 200.949C341.778 204.391 350.255 204.201 357.913 204.097C359.082 204.097 360.242 204.097 361.391 204.04C368.997 204.041 376.597 203.68 384.164 202.959C397.641 201.439 410.566 196.987 421.931 189.951" stroke="#E9E9E9" stroke-width="0.5" stroke-miterlimit="10"/>
<path d="M26.1318 11.9916C39.9073 11.4417 54.2726 20.6383 65.169 33.1627C76.5452 46.1992 85.3423 61.9472 94.2394 76.7946C103.136 91.6419 112.233 106.594 125.109 116.454C140.364 128.097 160.378 132.486 179.511 135.928C182.42 136.459 185.299 136.876 188.138 137.274C200.244 138.829 211.591 138.858 223.077 139.076C228.575 139.18 234.173 139.303 239.901 139.749C249.011 140.521 258.051 141.908 266.952 143.901C276.799 146.063 285.606 148.86 292.334 153.847C300.182 159.65 304.25 166.903 309.698 174.231C312.233 177.592 314.995 180.794 317.966 183.817C322.324 188.311 327.533 192.729 333.96 195.535C341.658 198.92 350.075 199.072 357.633 199.423L361.042 199.574C368.463 200.08 375.907 200.228 383.344 200.02C396.859 199.259 409.916 195.096 421.172 187.96" stroke="#E9E9E9" stroke-width="0.5" stroke-miterlimit="10"/>
<path d="M24.4624 13.7645C37.5781 13.9541 51.3635 23.1128 61.98 35.277C73.1764 48.0385 82.0734 63.1703 91.1405 77.316C100.207 91.4618 109.444 105.645 122.36 114.728C137.955 125.717 158.198 129.32 177.292 133.188C180.191 133.776 183.05 134.326 185.879 134.79C197.875 136.791 209.002 137.635 220.298 138.583C225.706 139.019 231.224 139.531 236.882 140.194C245.49 141.285 254.787 143.039 263.874 144.935C273.79 147.011 282.677 149.353 289.625 153.544C297.752 158.455 302.321 164.494 308.259 170.78C310.768 173.426 313.787 176.222 317.156 179.19C321.745 183.219 327.153 187.372 333.591 190.16C341.328 193.487 349.675 193.952 357.133 194.767L360.492 195.128C367.889 195.99 374.737 196.683 382.315 197.109C394.171 197.763 408.166 193.867 420.372 185.95" stroke="#E9E9E9" stroke-width="0.5" stroke-miterlimit="10"/>
<path d="M22.7827 15.547C35.2386 16.4951 48.4443 25.5874 58.7709 37.3534C69.7672 49.8495 78.7643 64.365 88.0112 77.7901C97.2582 91.2153 106.715 104.688 119.611 113.06C135.606 123.366 156.029 126.191 175.133 130.505C178.012 131.15 180.861 131.785 183.66 132.401C195.526 134.847 206.472 136.459 217.569 138.09C222.887 138.877 228.325 139.664 233.923 140.65C242.47 142.167 251.707 144.186 260.824 146.025C270.821 148.007 279.818 149.884 286.936 153.288C295.353 157.298 300.441 162.143 306.859 167.367C309.588 169.595 312.857 171.956 316.366 174.601C321.194 178.185 326.763 182.072 333.301 184.822C341.068 188.093 349.355 188.927 356.713 190.169C357.822 190.349 358.922 190.539 360.002 190.738C367.249 192.075 373.877 193.639 381.345 194.246C393.141 195.194 407.336 192.084 419.562 184.006" stroke="#E9E9E9" stroke-width="0.5" stroke-miterlimit="10"/>
<path d="M21.1035 17.3009C32.9096 18.9411 45.5355 28.0335 55.6221 39.4866C66.4386 51.7266 75.5456 65.6543 84.9325 78.3494C94.3194 91.0446 103.986 103.711 116.862 111.296C133.197 120.919 153.85 122.977 172.964 127.717C175.843 128.428 178.662 129.149 181.441 129.832C193.187 132.676 203.933 135.122 214.84 137.502C220.058 138.63 225.436 139.749 230.954 141.01C239.442 142.906 248.619 145.219 257.796 146.983C267.792 148.879 276.899 150.282 284.267 152.908C292.974 156.018 298.582 159.659 305.46 163.84C308.459 165.641 311.838 167.566 315.587 169.898C320.645 173.027 326.403 176.649 333.011 179.38C340.818 182.594 349.006 183.76 356.293 185.447C357.383 185.703 358.462 185.959 359.522 186.234C366.62 188.045 373.048 190.188 380.395 191.269C392.111 192.985 406.517 190.197 418.763 181.949" stroke="#E9E9E9" stroke-width="0.5" stroke-miterlimit="10"/>
<path d="M19.4338 19.1023C30.5702 21.4726 42.6162 30.5364 52.423 41.6293C63.0495 53.5754 72.2564 66.8773 81.8233 78.8709C91.3901 90.8644 101.277 102.735 114.103 109.58C130.827 118.502 151.67 119.801 170.784 124.977C173.653 125.755 176.462 126.561 179.211 127.348C190.837 130.685 201.384 133.88 212.1 136.971C217.229 138.44 222.527 139.891 227.985 141.427C236.402 143.788 245.529 146.319 254.746 148.007C264.853 149.827 274.02 150.756 281.577 152.605C289.31 154.515 296.835 157.114 304.05 160.37C307.249 161.745 310.858 163.214 314.797 165.253C320.085 167.936 326.033 171.292 332.721 173.985C340.548 177.142 348.715 178.631 355.873 180.783C356.943 181.105 358.002 181.427 359.042 181.731C365.98 184.025 372.198 186.756 379.425 188.301C391.071 190.795 405.687 188.301 417.943 179.901" stroke="#E9E9E9" stroke-width="0.5" stroke-miterlimit="10"/>
<path d="M17.7544 20.8848C28.2409 23.9851 39.7472 33.011 49.254 43.7436C59.6906 55.4148 69.0075 68.1004 78.7343 79.3924C88.4611 90.6843 98.5878 101.73 111.364 107.836C128.528 116.075 149.521 116.624 168.625 122.237C171.484 123.081 174.273 123.963 177.012 124.863C188.518 128.656 198.855 132.638 209.381 136.449C214.38 138.26 219.638 140.043 225.036 141.844C233.72 144.892 242.641 147.295 251.717 149.031C261.894 150.775 271.151 151.221 278.918 152.292C286.942 153.29 294.88 154.833 302.671 156.909C306.538 157.912 310.334 159.147 314.037 160.607C319.545 162.854 325.683 165.926 332.441 168.59C340.308 171.7 348.435 173.52 355.433 176.118C356.433 176.507 357.523 176.905 358.542 177.322C365.34 180.091 371.338 183.409 378.456 185.419C390.022 188.69 404.847 186.528 417.123 177.938" stroke="#E9E9E9" stroke-width="0.5" stroke-miterlimit="10"/>
<path d="M16.085 22.6672C25.9117 26.4597 36.7881 35.4856 46.0751 45.8674C56.3317 57.2446 65.7586 69.333 75.6354 79.9044C85.5121 90.4757 95.9087 100.715 108.624 106.138C126.169 113.619 147.352 113.448 166.465 119.497C169.315 120.445 172.094 121.393 174.803 122.342C186.189 126.561 196.326 131.358 206.672 135.881C211.611 138.03 216.746 140.144 222.077 142.223C230.374 145.437 239.381 148.481 248.688 150.017C258.925 151.676 268.282 151.638 276.249 151.913C285.856 152.283 293.054 152.273 301.241 153.383C305.312 153.876 309.328 154.72 313.237 155.905C318.965 157.696 325.303 160.503 332.131 163.139C340.038 166.182 348.126 168.334 355.033 171.397C356.033 171.852 357.033 172.345 358.032 172.8C364.67 176.061 370.458 179.958 377.466 182.433C388.952 186.49 403.987 184.632 416.273 175.872" stroke="#E9E9E9" stroke-width="0.5" stroke-miterlimit="10"/>
<path d="M14.4058 24.4402C23.5727 28.9911 33.8793 37.9602 42.8864 47.9816C52.9531 59.1029 62.4899 70.556 72.5466 80.4258C82.6033 90.2956 93.2398 99.6913 105.886 104.422C123.88 111.144 145.183 110.263 164.306 116.748C167.145 117.696 169.905 118.777 172.594 119.886C183.87 124.551 193.797 130.144 203.953 135.387C208.802 137.881 213.87 140.337 219.128 142.669C227.356 146.319 236.313 149.609 245.67 151.069C255.966 152.652 265.413 152.122 273.59 151.657C283.497 151.107 291.225 150.273 299.892 149.969C304.129 149.878 308.36 150.334 312.468 151.325C318.466 152.681 324.954 155.212 331.861 157.81C339.799 160.806 347.796 163.29 354.624 166.798C355.623 167.32 356.623 167.851 357.623 168.419C364.111 172.155 369.689 176.649 376.616 179.579C388.023 184.433 403.278 182.869 415.604 173.89" stroke="#E9E9E9" stroke-width="0.5" stroke-miterlimit="10"/>
<path d="M12.7261 26.2227C21.2433 31.5036 30.9601 40.4442 39.7172 50.096C49.5539 60.9138 59.2308 71.7791 69.4274 80.9473C79.624 90.1155 90.5404 98.6484 103.116 102.706C121.53 108.651 142.993 107.087 162.117 114.008C164.946 115.032 167.685 116.179 170.354 117.402C181.511 122.541 191.247 128.902 201.204 134.866C205.962 137.71 210.951 140.498 216.139 143.096C224.306 147.172 233.203 150.68 242.61 152.103C252.977 153.601 262.514 152.577 270.891 151.363C281.098 149.875 289.345 147.4 298.472 146.518C302.869 146.019 307.316 146.077 311.698 146.689C317.886 147.637 324.613 149.856 331.581 152.378C339.578 155.317 347.496 158.123 354.224 162.096C355.223 162.683 356.223 163.281 357.153 163.916C363.501 168.116 368.849 173.226 375.627 176.621C386.933 182.309 402.418 180.991 414.734 171.88" stroke="#E9E9E9" stroke-width="0.5" stroke-miterlimit="10"/>
<path d="M11.0566 27.9956C18.9141 34.0066 28.051 42.9093 36.5183 52.2197C46.2151 62.81 55.9718 73.0117 66.3184 81.4593C76.825 89.9922 87.8713 97.5771 100.367 100.99C119.211 106.12 140.824 103.91 159.948 111.287C162.741 112.377 165.473 113.602 168.135 114.956C179.131 120.493 188.708 127.679 198.475 134.354C203.143 137.54 208.052 140.668 213.18 143.532C221.277 148.045 230.175 151.847 239.571 153.146C249.998 154.568 259.635 153.041 268.222 151.069C278.709 148.652 287.486 144.944 297.082 143.077C301.619 142.108 306.279 141.766 310.918 142.062C317.336 142.546 324.254 144.518 331.301 147.059C339.299 149.903 347.186 153.07 353.804 157.488C354.803 158.142 355.743 158.815 356.673 159.526C362.871 164.21 367.999 169.955 374.667 173.748C385.873 180.195 401.588 179.209 413.924 169.955" stroke="#E9E9E9" stroke-width="0.5" stroke-miterlimit="10"/>
<path d="M9.3772 29.778C16.5748 36.519 25.132 45.3933 33.3693 54.3339C42.8662 64.6303 52.7429 74.2441 63.2495 81.9806C73.926 89.8594 85.2422 96.5056 97.6481 99.2646C116.902 103.578 138.655 100.734 157.778 108.547C160.572 109.696 163.293 111 165.926 112.453C176.842 118.435 186.169 126.418 195.746 133.814C200.375 137.431 205.207 140.808 210.221 143.93C218.218 148.879 227.036 152.927 236.532 154.15C247.029 155.487 256.746 153.477 265.523 150.737C276.319 147.39 285.616 142.451 295.683 139.607C300.349 138.145 305.234 137.405 310.148 137.416C317.298 137.759 324.343 139.193 331.011 141.664C339.009 144.508 346.876 147.95 353.394 152.842C354.394 153.553 355.293 154.302 356.203 155.08C362.201 160.247 367.199 166.552 373.717 170.847C384.824 178.09 400.778 177.398 413.134 167.955" stroke="#E9E9E9" stroke-width="0.5" stroke-miterlimit="10"/>
<path d="M7.70776 31.5225C14.2456 38.9841 22.223 47.8299 30.1504 56.4102C39.4673 66.4412 49.454 75.4197 60.1405 82.4642C70.9969 89.6319 82.5331 95.3679 94.889 97.5106C114.603 100.933 136.505 97.5106 155.629 105.769C158.422 106.985 161.127 108.375 163.726 109.931C174.533 116.349 183.65 125.1 193.037 133.245C197.536 137.213 202.283 140.92 207.252 144.347C215.249 149.732 223.957 154.027 233.493 155.174C244.06 156.435 253.857 153.923 262.874 150.434C273.93 146.158 283.737 140.005 294.283 136.136C299.094 134.27 304.185 133.134 309.368 132.771C316.236 132.391 323.524 133.804 330.731 136.269C338.799 139.057 346.576 142.821 352.974 148.168C353.914 148.955 354.833 149.77 355.723 150.623C361.621 156.312 366.29 163.176 372.768 167.917C383.764 175.966 399.959 175.559 412.325 165.945" stroke="#E9E9E9" stroke-width="0.5" stroke-miterlimit="10"/>
<path d="M6.02832 33.3334C12.4758 42.1451 19.4866 50.5737 27.0214 58.5719C35.7312 68.0432 45.8312 76.2779 57.0115 83.0236C68.0579 89.4707 79.824 94.2966 92.12 95.8325C112.263 98.3545 134.336 94.325 153.44 103.067C156.244 104.347 158.944 105.823 161.517 107.485C172.224 114.33 181.121 123.925 190.318 132.761C194.708 137.044 199.383 141.057 204.313 144.774C212.19 150.586 220.898 155.127 230.484 156.151C241.111 157.327 250.988 154.321 260.215 150.074C271.551 144.85 281.877 137.454 292.904 132.61C297.854 130.321 303.154 128.789 308.609 128.068C316.022 127.409 323.497 128.366 330.461 130.865C338.698 133.523 346.236 137.83 352.564 143.494C353.484 144.347 354.384 145.238 355.253 146.158C360.991 152.283 365.43 159.792 371.818 164.987C382.694 173.843 399.139 173.719 411.525 163.944" stroke="#E9E9E9" stroke-width="0.5" stroke-miterlimit="10"/>
<path d="M4.34912 35.1158C9.83249 44.2922 16.352 52.8756 23.7927 60.7147C32.3766 69.9133 42.5652 77.6425 53.9128 83.564C65.1291 89.2811 77.1351 93.1494 89.3711 94.0975C109.934 95.6808 132.167 91.1299 151.271 100.308C154.065 101.659 156.739 103.222 159.268 104.982C169.865 112.273 178.552 122.664 187.559 132.211C191.826 136.831 196.429 141.162 201.334 145.172C209.132 151.42 217.789 156.208 227.426 157.203C238.112 158.322 248.069 154.776 257.486 149.808C269.092 143.655 279.928 135.037 291.475 129.196C296.563 126.497 302.069 124.577 307.789 123.508C315.295 122.354 322.987 123.043 330.132 125.508C338.498 128.2 346.047 132.785 352.125 138.867C353.034 139.815 353.914 140.763 354.754 141.711C360.352 148.348 364.551 156.426 370.838 162.067C381.605 171.728 398.299 171.89 410.695 161.944" stroke="#E9E9E9" stroke-width="0.5" stroke-miterlimit="10"/>
<path d="M2.6792 36.8983C7.19455 46.3593 13.2274 55.1001 20.5633 62.81C29.035 71.7385 39.3072 78.9663 50.7734 84.0666C61.9916 89.1147 74.1738 91.9499 86.5816 92.4004C107.575 93.0262 129.957 87.9822 149.061 97.6055C151.86 99.021 154.519 100.671 157.008 102.536C167.485 110.263 176.002 121.498 184.789 131.718C188.933 136.662 193.457 141.308 198.325 145.618C206.042 152.311 214.669 157.336 224.316 158.256C235.073 159.27 245.089 155.26 254.776 149.505C266.652 142.403 277.999 132.553 290.025 125.745C295.254 122.619 300.968 120.29 306.959 118.843C314.548 117.238 322.46 117.675 329.802 120.104C338.296 122.838 345.851 127.704 351.664 134.183C352.554 135.132 353.404 136.203 354.223 137.265C359.672 144.347 363.64 153.06 369.838 159.157C380.475 169.586 397.439 170.069 409.825 159.953" stroke="#E9E9E9" stroke-width="0.5" stroke-miterlimit="10"/>
<path d="M1 38.6713C14.7955 75.2966 50.3038 91.2437 83.8727 90.6749C105.206 90.3146 127.858 84.8061 146.932 94.856C161.207 102.365 171.394 117.544 182.1 131.178C192.807 144.812 205.553 157.896 221.347 159.27C251.497 161.878 276.079 122.294 306.259 114.188C323.894 109.447 342.598 116.767 353.824 132.809C359.122 140.394 362.821 149.675 368.949 156.227C379.465 167.5 396.69 168.23 409.116 157.943" stroke="#E9E9E9" stroke-width="0.5" stroke-miterlimit="10"/>
<path d="M204 268H400" stroke="#EDED69" stroke-width="0.25" stroke-miterlimit="10"/>
</svg>
