<svg width="893" height="242" viewBox="0 0 893 242" fill="none" xmlns="http://www.w3.org/2000/svg">
<path d="M73.8542 2.37309C111.033 -2.75163 148.506 7.03282 174.753 22.3476C201.001 37.6624 218.08 57.9634 234.76 77.8885C251.44 97.8135 268.666 118.075 295.102 133.291C327.833 152.088 374.034 161.872 420.592 159.805C460.456 158.044 498.978 148.151 538.612 144.223C578.245 140.295 623.313 144.035 645.029 163.495C658.079 175.199 660.303 190.395 665.402 204.512C670.5 218.63 680.676 233.45 702.245 238.803C717.918 242.691 736.339 240.712 753.523 238.288C801.948 231.369 848.439 221.737 892 209.598" stroke="#EDED69" stroke-width="0.5" stroke-miterlimit="10"/>
<path d="M70.4341 4.21321C106.249 -0.159619 142.484 9.59515 168.186 24.534C193.888 39.4728 211.219 59.2396 228.256 78.4128C245.292 97.5859 262.707 117.095 289.332 131.47C316.719 146.418 355.548 155.642 397.323 157.124C403.517 157.34 409.734 157.363 415.934 157.193C442.58 156.461 468.513 152.385 494.634 148.873C507.04 147.123 519.65 145.712 532.401 144.648C551.546 143.078 571.185 143.476 589.974 145.816C609.948 148.487 627.74 153.849 639.448 163.149C653.085 173.903 656.233 187.823 662.527 200.882C665.015 206.418 668.648 211.826 673.374 217.027C679.963 224.071 689.026 230.077 701.699 233.154C717.456 236.992 735.752 235.36 752.726 233.401C755.327 233.104 757.929 232.787 760.531 232.471C777.945 230.344 795.087 227.88 812.355 224.942C839.49 220.344 865.615 214.516 890.363 207.54" stroke="#EDED69" stroke-width="0.5" stroke-miterlimit="10"/>
<path d="M66.8257 6.08298C101.235 2.48183 136.274 12.197 161.389 26.7698C186.86 41.5108 204.379 60.5158 221.752 78.9667C239.124 97.4177 256.791 116.136 283.563 129.68C312.937 144.589 352.801 152.434 392.666 154.274C398.824 154.544 405.008 154.657 411.192 154.611C437.587 154.334 463.1 151.089 488.823 148.319C501.109 146.919 513.548 145.839 526.086 145.084C545.291 143.976 564.766 144.587 583.491 146.884C603.612 149.476 621.488 154.354 633.72 162.832C647.903 172.646 652.226 185.28 659.443 197.261C662.463 202.411 666.538 207.411 671.612 212.19C678.725 218.749 688.125 224.487 700.986 227.534C716.827 231.313 734.997 230.037 751.74 228.523L759.419 227.811C776.54 226.179 793.199 224.299 810.236 221.875C837.781 218.014 864.155 212.494 888.706 205.452" stroke="#EDED69" stroke-width="0.5" stroke-miterlimit="10"/>
<path d="M63.3008 7.94304C96.3464 5.09378 130.147 14.7793 154.716 28.9761C179.789 43.4302 197.539 61.802 215.206 79.511C232.872 97.22 250.874 115.127 277.772 127.889C307.817 142.106 348.164 149.13 388.197 151.415C394.365 151.752 400.492 151.959 406.618 152.019C432.761 152.207 457.855 149.793 483.158 147.775C495.33 146.731 507.605 145.978 519.938 145.519C539.171 144.883 558.495 145.705 577.175 147.953C597.443 150.456 615.445 154.878 628.181 162.506C642.868 171.41 648.281 182.747 656.569 193.65C660.134 198.404 664.644 202.988 670.039 207.342C677.655 213.436 687.432 218.897 700.42 221.915C716.324 225.635 734.388 224.715 750.901 223.676L758.454 223.181C775.239 222.063 791.416 220.757 808.264 218.848C836.076 215.721 862.632 210.492 886.902 203.365" stroke="#EDED69" stroke-width="0.5" stroke-miterlimit="10"/>
<path d="M59.7759 9.8029C91.4157 7.71542 124.042 17.3614 148.065 31.1823C172.739 45.3593 190.72 63.0782 208.743 80.0452C226.766 97.0121 245.041 114.187 272.044 126.098C302.719 139.632 343.653 145.885 383.686 148.556C389.833 148.972 395.939 149.268 402.002 149.427C427.914 150.109 452.567 148.497 477.535 147.22C489.452 146.607 501.517 146.063 513.812 145.954C533.051 145.797 552.251 146.828 570.923 149.021C591.317 151.445 609.466 155.343 622.663 162.179C637.979 170.094 644.399 180.205 653.757 190.039C657.867 194.389 662.781 198.56 668.444 202.504C676.585 208.123 686.74 213.308 699.916 216.285C715.904 219.946 733.843 219.392 750.124 218.818L757.552 218.541C774.043 217.918 789.758 217.196 806.375 215.801C834.452 213.437 861.275 208.503 885.328 201.277" stroke="#EDED69" stroke-width="0.5" stroke-miterlimit="10"/>
<path d="M56.272 11.6531C86.548 10.3274 117.915 19.9437 141.351 33.4183C165.627 47.2689 183.859 64.3744 202.197 80.6092C220.535 96.8441 239.166 113.257 266.232 124.328C297.557 137.189 339.037 142.571 379.091 145.717C385.217 146.202 391.281 146.587 397.302 146.855C422.963 148.012 447.196 147.211 471.702 146.696C483.431 146.439 495.327 146.231 507.496 146.409C526.694 146.734 545.772 147.973 564.44 150.109C584.959 152.444 603.297 155.857 616.893 161.873C632.776 168.877 640.245 177.702 650.652 186.438C655.366 190.377 660.733 194.135 666.703 197.676C675.347 202.831 685.879 207.718 699.161 210.686C715.232 214.277 733.025 214.079 749.096 213.971C751.551 213.971 753.985 213.971 756.398 213.911C772.36 213.913 788.311 213.536 804.193 212.783C832.48 211.197 859.607 206.552 883.461 199.21" stroke="#EDED69" stroke-width="0.5" stroke-miterlimit="10"/>
<path d="M52.7468 13.513C81.6591 12.9391 111.809 22.5356 134.679 35.6046C158.556 49.2079 177.019 65.6406 195.693 81.1335C214.366 96.6264 233.459 112.228 260.483 122.517C292.5 134.666 334.505 139.247 374.663 142.838C380.769 143.392 386.811 143.827 392.77 144.243C418.178 145.865 441.992 145.895 466.1 146.122C477.64 146.231 489.389 146.36 501.411 146.825C520.531 147.63 539.505 149.078 558.187 151.158C578.853 153.414 597.338 156.332 611.458 161.536C627.929 167.591 636.468 175.159 647.903 182.807C653.223 186.314 659.019 189.655 665.255 192.809C674.402 197.498 685.334 202.108 698.825 205.037C714.98 208.569 732.647 208.727 748.508 209.093L755.663 209.251C771.24 209.779 786.863 209.934 802.472 209.716C830.838 208.922 858.242 204.578 881.866 197.132" stroke="#EDED69" stroke-width="0.5" stroke-miterlimit="10"/>
<path d="M49.2432 15.363C76.7707 15.5609 105.704 25.1178 127.986 37.8109C151.485 51.1272 170.159 66.9169 189.189 81.6777C208.219 96.4384 227.605 111.239 254.713 120.717C287.444 132.183 329.931 135.942 370.006 139.979C376.09 140.592 382.091 141.166 388.029 141.651C413.206 143.738 436.558 144.619 460.267 145.608C471.618 146.063 483.2 146.597 495.075 147.29C513.14 148.428 532.653 150.258 551.725 152.237C572.538 154.403 591.191 156.847 605.773 161.22C622.831 166.344 632.419 172.646 644.882 179.206C650.148 181.966 656.485 184.884 663.555 187.981C673.186 192.186 684.537 196.519 698.049 199.427C714.288 202.9 731.808 203.385 747.46 204.236L754.509 204.611C770.036 205.512 784.408 206.234 800.312 206.679C825.195 207.362 854.569 203.296 880.188 195.035" stroke="#EDED69" stroke-width="0.5" stroke-miterlimit="10"/>
<path d="M45.7185 17.2229C71.8612 18.2122 99.5776 27.6999 121.251 39.9774C144.331 53.0168 163.214 68.1634 182.622 82.1723C202.029 96.1811 221.878 110.239 248.944 118.975C282.514 129.729 325.379 132.677 365.474 137.179C371.516 137.852 377.496 138.514 383.371 139.158C408.276 141.71 431.25 143.392 454.54 145.093C465.702 145.915 477.115 146.736 488.865 147.765C506.804 149.348 526.191 151.455 545.326 153.374C566.307 155.442 585.19 157.401 600.129 160.952C617.795 165.137 628.475 170.193 641.945 175.644C647.673 177.969 654.534 180.432 661.898 183.192C672.032 186.932 683.719 190.988 697.44 193.857C713.743 197.271 731.136 198.141 746.579 199.437C748.908 199.625 751.215 199.823 753.481 200.031C768.693 201.426 782.604 203.058 798.277 203.691C823.035 204.681 852.828 201.436 878.488 193.007" stroke="#EDED69" stroke-width="0.5" stroke-miterlimit="10"/>
<path d="M42.1936 19.0532C66.9725 20.7648 93.4719 30.2524 114.642 42.2035C137.344 54.9757 156.458 69.5089 176.159 82.756C195.861 96.0031 216.15 109.221 243.174 117.135C277.457 127.177 320.805 129.324 360.921 134.27C366.963 135.012 372.88 135.764 378.713 136.477C403.366 139.445 425.921 141.997 448.812 144.48C459.764 145.657 471.052 146.825 482.633 148.141C500.447 150.119 519.707 152.533 538.968 154.373C559.95 156.352 579.064 157.816 594.527 160.557C612.801 163.802 624.572 167.601 639.007 171.964C645.302 173.843 652.393 175.852 660.261 178.285C670.878 181.55 682.963 185.33 696.832 188.179C713.218 191.533 730.402 192.749 745.697 194.51C747.984 194.778 750.25 195.045 752.474 195.332C767.371 197.221 780.862 199.457 796.283 200.585C820.873 202.376 851.107 199.467 876.81 190.86" stroke="#EDED69" stroke-width="0.5" stroke-miterlimit="10"/>
<path d="M38.6895 20.9329C62.0626 23.4062 87.3451 32.8642 107.928 44.4393C130.231 56.9048 149.555 70.7851 169.634 83.3001C189.713 95.8151 210.464 108.201 237.383 115.344C272.484 124.654 316.23 126.009 356.347 131.411C362.368 132.222 368.264 133.063 374.034 133.884C398.435 137.367 420.57 140.701 443.062 143.926C453.826 145.46 464.946 146.973 476.402 148.576C494.068 151.039 513.224 153.681 532.569 155.442C553.781 157.341 573.021 158.311 588.883 160.24C605.112 162.233 620.905 164.946 636.049 168.343C642.763 169.777 650.337 171.311 658.604 173.438C669.703 176.237 682.187 179.74 696.223 182.549C712.652 185.844 729.793 187.397 744.816 189.643C747.061 189.979 749.285 190.316 751.467 190.632C766.028 193.026 779.078 195.876 794.248 197.488C818.691 200.09 849.366 197.488 875.089 188.723" stroke="#EDED69" stroke-width="0.5" stroke-miterlimit="10"/>
<path d="M35.1648 22.7927C57.1742 26.0278 81.3237 35.4462 101.277 46.6454C123.181 58.824 142.736 72.0612 163.151 83.8441C183.566 95.627 204.82 107.153 231.634 113.524C267.659 122.121 311.72 122.695 351.815 128.552C357.816 129.432 363.669 130.352 369.418 131.292C393.568 135.25 415.262 139.405 437.356 143.382C447.846 145.271 458.883 147.131 470.212 149.011C488.438 152.192 507.161 154.699 526.212 156.51C547.571 158.331 566.999 158.796 583.302 159.914C600.142 160.954 616.802 162.565 633.154 164.732C641.271 165.778 649.239 167.067 657.009 168.59C668.57 170.935 681.452 174.14 695.636 176.92C712.148 180.165 729.206 182.065 743.893 184.775C745.991 185.181 748.278 185.596 750.418 186.032C764.685 188.921 777.274 192.383 792.213 194.481C816.488 197.894 847.604 195.638 873.369 186.675" stroke="#EDED69" stroke-width="0.5" stroke-miterlimit="10"/>
<path d="M31.6609 24.6528C52.2855 28.6101 75.1132 38.0285 94.6049 48.8617C116.132 60.7336 135.917 73.3475 156.647 84.3785C177.376 95.4095 199.197 106.094 225.885 111.753C262.707 119.559 307.167 119.381 347.283 125.693C353.263 126.682 359.095 127.672 364.781 128.661C388.679 133.063 409.954 138.069 431.67 142.788C442.035 145.031 452.812 147.237 464.002 149.407C481.417 152.761 500.321 155.937 519.854 157.539C541.339 159.271 560.978 159.231 577.7 159.518C597.863 159.904 612.97 159.894 630.153 161.051C638.698 161.566 647.125 162.447 655.331 163.683C667.353 165.553 680.655 168.481 694.986 171.232C711.582 174.407 728.556 176.653 743.054 179.849C745.152 180.324 747.25 180.838 749.348 181.313C763.28 184.716 775.428 188.782 790.136 191.364C814.243 195.599 845.799 193.66 871.585 184.518" stroke="#EDED69" stroke-width="0.5" stroke-miterlimit="10"/>
<path d="M28.136 26.5027C47.3759 31.2515 69.0076 40.6105 87.9118 51.0677C109.04 62.6725 129.056 74.6236 150.163 84.9225C171.271 95.2214 193.595 105.026 220.136 109.962C257.902 116.977 302.614 116.057 342.751 122.824C348.71 123.813 354.501 124.941 360.144 126.098C383.811 130.966 404.646 136.803 425.963 142.274C436.139 144.876 446.776 147.438 457.813 149.872C475.08 153.681 493.879 157.114 513.518 158.637C535.129 160.289 554.956 159.735 572.119 159.251C592.911 158.677 609.13 157.806 627.321 157.49C636.214 157.394 645.094 157.87 653.715 158.904C666.304 160.319 679.921 162.961 694.419 165.671C711.078 168.798 727.863 171.39 742.193 175.05C744.291 175.594 746.39 176.148 748.488 176.742C762.105 180.64 773.812 185.329 788.352 188.386C812.292 193.452 844.309 191.819 870.179 182.45" stroke="#EDED69" stroke-width="0.5" stroke-miterlimit="10"/>
<path d="M24.6111 28.3628C42.4872 33.8733 62.881 43.2027 81.2607 53.2741C101.906 64.5623 122.216 75.9 143.617 85.4668C165.018 95.0336 187.93 103.938 214.324 108.172C252.972 114.375 298.019 112.743 338.156 119.965C344.094 121.033 349.843 122.23 355.445 123.506C378.86 128.869 399.296 135.507 420.193 141.73C430.18 144.698 440.65 147.606 451.539 150.317C468.681 154.571 487.354 158.232 507.098 159.716C528.855 161.279 548.871 160.21 566.454 158.944C587.876 157.391 605.185 154.809 624.341 153.889C633.57 153.368 642.904 153.428 652.099 154.067C665.087 155.056 679.207 157.371 693.831 160.003C710.616 163.07 727.234 165.998 741.354 170.143C743.452 170.757 745.55 171.38 747.502 172.043C760.825 176.426 772.05 181.758 786.275 185.3C810.005 191.236 842.505 189.861 868.354 180.353" stroke="#EDED69" stroke-width="0.5" stroke-miterlimit="10"/>
<path d="M21.1072 30.2126C37.5985 36.485 56.7754 45.7748 74.5466 55.49C94.8985 66.5408 115.376 77.1859 137.092 86.0008C159.143 94.9048 182.328 102.819 208.554 106.381C248.104 111.733 293.466 109.428 333.603 117.125C339.465 118.263 345.2 119.541 350.787 120.954C373.866 126.731 393.966 134.231 414.465 141.195C424.263 144.52 434.565 147.784 445.329 150.772C462.323 155.481 480.997 159.449 500.719 160.804C522.603 162.288 542.829 160.695 560.852 158.637C582.861 156.114 601.283 152.246 621.425 150.297C630.945 149.286 640.726 148.93 650.463 149.239C663.933 149.743 678.452 151.801 693.244 154.452C710.029 157.42 726.583 160.725 740.473 165.335C742.571 166.018 744.543 166.72 746.494 167.462C759.503 172.349 770.266 178.345 784.261 182.302C807.781 189.029 840.764 188.001 866.655 178.345" stroke="#EDED69" stroke-width="0.5" stroke-miterlimit="10"/>
<path d="M17.5823 32.0728C32.6888 39.1069 50.6488 48.367 67.9375 57.6963C87.8697 68.4404 108.599 78.4722 130.651 86.5451C153.059 94.7664 176.81 101.702 202.847 104.581C243.257 109.082 288.913 106.114 329.05 114.266C334.914 115.466 340.624 116.827 346.15 118.342C369.061 124.585 388.637 132.915 408.737 140.632C418.453 144.406 428.595 147.93 439.118 151.188C455.903 156.352 474.409 160.577 494.341 161.853C516.371 163.248 536.765 161.15 555.187 158.291C577.847 154.799 597.359 149.644 618.487 146.676C628.282 145.151 638.533 144.379 648.847 144.391C663.854 144.749 678.64 146.245 692.635 148.823C709.42 151.791 725.933 155.383 739.613 160.487C741.711 161.229 743.599 162.011 745.508 162.822C758.097 168.214 768.588 174.793 782.268 179.275C805.578 186.833 839.064 186.111 864.997 176.257" stroke="#EDED69" stroke-width="0.5" stroke-miterlimit="10"/>
<path d="M14.0786 33.8931C27.8004 41.6791 44.5435 50.9095 61.1816 59.8629C80.7362 70.33 101.697 79.6989 124.126 87.0496C146.911 94.5289 171.124 100.514 197.057 102.75C238.432 106.322 284.402 102.75 324.539 111.367C330.402 112.636 336.079 114.087 341.534 115.71C364.215 122.408 383.35 131.54 403.051 140.038C412.495 144.178 422.458 148.047 432.887 151.623C449.672 157.242 467.947 161.724 487.963 162.921C510.14 164.237 530.702 161.615 549.627 157.975C572.832 153.513 593.415 147.092 615.55 143.055C625.647 141.108 636.332 139.923 647.211 139.543C661.625 139.148 676.921 140.622 692.048 143.194C708.98 146.103 725.304 150.03 738.732 155.61C740.704 156.431 742.634 157.282 744.501 158.172C756.88 164.108 766.679 171.271 780.275 176.218C803.354 184.617 837.344 184.192 863.298 174.16" stroke="#EDED69" stroke-width="0.5" stroke-miterlimit="10"/>
<path d="M10.5535 35.7827C24.0856 44.9775 38.8001 53.7726 54.6142 62.1186C72.8946 72.0016 94.0927 80.5944 117.558 87.6334C140.743 94.3608 165.438 99.3965 191.245 100.999C233.522 103.631 279.849 99.4262 319.944 108.548C325.83 109.884 331.497 111.425 336.897 113.158C359.368 120.301 378.041 130.313 397.344 139.533C406.559 144.003 416.37 148.19 426.718 152.068C443.251 158.133 461.526 162.872 481.647 163.94C503.95 165.167 524.68 162.031 544.046 157.599C567.838 152.147 589.512 144.431 612.654 139.375C623.044 136.988 634.169 135.388 645.616 134.636C661.176 133.949 676.864 134.947 691.481 137.555C708.769 140.328 724.59 144.823 737.871 150.733C739.801 151.623 741.69 152.553 743.515 153.513C755.558 159.904 764.874 167.739 778.281 173.161C801.109 182.401 835.623 182.272 861.619 172.072" stroke="#EDED69" stroke-width="0.5" stroke-miterlimit="10"/>
<path d="M7.02856 37.6426C18.5372 47.2179 32.2206 56.1745 47.8373 64.3544C65.8532 73.9529 87.2374 82.0182 111.054 88.1972C134.595 94.1629 159.794 98.1993 185.475 99.1886C228.633 100.841 275.296 96.092 315.391 105.669C321.255 107.079 326.869 108.71 332.176 110.546C354.416 118.154 372.649 128.997 391.553 138.96C400.51 143.78 410.171 148.299 420.466 152.484C436.831 159.003 455.001 163.999 475.227 165.038C497.656 166.206 518.553 162.506 538.318 157.322C562.677 150.901 585.421 141.908 609.654 135.814C620.334 132.997 631.89 130.993 643.896 129.878C659.648 128.674 675.792 129.392 690.789 131.965C708.349 134.774 724.192 139.559 736.948 145.905C738.857 146.894 740.703 147.883 742.466 148.873C754.215 155.798 763.028 164.227 776.225 170.114C798.822 180.195 833.861 180.363 859.877 169.985" stroke="#EDED69" stroke-width="0.5" stroke-miterlimit="10"/>
<path d="M3.52466 39.5024C13.0016 49.3748 25.6635 58.4956 41.0603 66.5408C58.8408 75.8574 80.4004 83.3994 104.466 88.7215C128.011 93.9891 153.579 96.9476 179.621 97.4177C223.682 98.0706 270.659 92.8074 310.754 102.849C316.628 104.326 322.211 106.048 327.434 107.994C349.423 116.057 367.299 127.78 385.742 138.445C394.439 143.604 403.934 148.451 414.15 152.949C430.348 159.933 448.455 165.177 468.702 166.136C491.278 167.195 512.301 163.01 532.632 157.005C557.558 149.595 581.371 139.316 606.612 132.212C617.588 128.95 629.581 126.52 642.154 125.01C658.083 123.335 674.687 123.791 690.097 126.326C707.925 129.179 723.782 134.256 735.983 141.017C737.85 142.007 739.634 143.125 741.354 144.233C752.789 151.623 761.118 160.715 774.127 167.076C796.451 177.959 832.056 178.463 858.052 167.907" stroke="#EDED69" stroke-width="0.5" stroke-miterlimit="10"/>
<path d="M0 41.3525C28.9542 79.5702 103.48 96.2107 173.935 95.6171C218.709 95.2412 266.253 89.4932 306.285 99.9801C336.247 107.816 357.627 123.655 380.098 137.881C402.569 152.108 429.32 165.76 462.47 167.195C525.75 169.916 577.343 128.611 640.686 120.152C677.697 115.206 716.953 122.843 740.515 139.583C751.635 147.497 759.398 157.183 772.26 164.019C794.332 175.782 830.483 176.544 856.562 165.81" stroke="#EDED69" stroke-width="0.5" stroke-miterlimit="10"/>
</svg>
