<svg width="27" height="24" viewBox="0 0 27 24" fill="none" xmlns="http://www.w3.org/2000/svg">
<g clip-path="url(#clip0_263_995)">
<path d="M19.5353 8.38462C19.5353 8.38462 16.9004 1 13.092 1C9.28359 1 6.64869 8.38462 6.64869 8.38462M19.5353 8.38462C19.5353 8.38462 24.0723 8.38462 24.9873 8.38462C25.9023 8.38462 22.5472 23.1538 21.0222 23.1538C19.4971 23.1538 7.60184 23.1538 5.16178 23.1538C2.72173 23.1538 0.281662 8.38462 1.19668 8.38462C2.1117 8.38462 6.64869 8.38462 6.64869 8.38462M19.5353 8.38462H6.64869" stroke="#418B77" stroke-width="2"/>
<path d="M13 19C11.3431 19 10 17.6569 10 16C10 14.3432 11.3431 13 13 13C14.6568 13 16 14.3432 16 16C16 17.6569 14.6568 19 13 19Z" stroke="#191924" stroke-width="2" stroke-miterlimit="10"/>
</g>
<defs>
<clipPath id="clip0_263_995">
<rect width="27" height="24" fill="none"/>
</clipPath>
</defs>
</svg>
