<svg width="1440" height="348" viewBox="0 0 1440 348" fill="none" xmlns="http://www.w3.org/2000/svg">
<g opacity="0.5">
<path d="M38.3763 193.434C117.529 194.213 189.013 215.422 253.358 237.621C292.68 251.189 331.041 265.378 368.441 280.187C423.215 301.88 484.785 326.329 555.365 322.871C615.174 319.95 663.075 297.027 692.535 271.822C721.995 246.617 738.237 218.273 766.279 192.686C794.321 167.1 838.917 143.133 898.009 137.836C925.458 135.383 954.123 137.143 981.339 134.316C1053.31 126.854 1094.33 91.3675 1150.6 68.5303C1223.43 38.9323 1331.11 30.8707 1419.21 48.3335" stroke="#D9D9D9" stroke-width="0.5" stroke-miterlimit="10"/>
<path d="M36.5526 188.036C79.4181 188.542 120.055 195.163 157.636 204.821C194.173 214.238 227.249 226.903 259.219 239.093C296.442 253.253 334.039 267.133 370.451 281.932C378.51 285.211 386.74 288.545 395.157 291.832C442.403 310.268 495.665 327.248 554.508 323.844C606.586 320.822 646.708 301.833 677.524 280.92C682.325 277.664 686.877 274.361 691.116 271.059C703.527 261.189 714.85 250.989 725.035 240.503C739.905 225.439 753.747 210.001 771.501 195.373C791.032 179.414 817.188 163.89 848.441 152.916C865.587 146.879 884.292 142.26 904.322 139.846C921.78 137.743 939.518 137.385 956.96 136.38C965.903 135.921 974.762 135.119 983.459 133.981C1011.86 130.086 1035.02 121.573 1056.72 111.175C1084.5 97.8089 1110.03 81.3353 1140.36 68.5692C1142.81 67.5332 1145.3 66.5284 1147.81 65.547C1188.53 49.6264 1239.59 41.0975 1291.93 38.7608C1335.41 36.8291 1380 39.1347 1420.36 46.0902" stroke="#D9D9D9" stroke-width="0.5" stroke-miterlimit="10"/>
<path d="M34.7289 182.693C80.2598 183.324 123.359 190.903 162.219 201.838C200.081 212.548 232.783 227.113 265.096 240.565C300.261 255.208 337.032 268.878 372.462 283.669C380.256 286.948 388.346 290.274 396.576 293.545C442.777 311.888 495.899 328.666 553.666 324.795C606.071 321.282 643.466 300.797 675.389 279.977C680.366 276.732 685.12 273.499 689.651 270.28C703.166 260.606 715.09 250.987 726.344 241.165C742.539 226.895 757.69 212.12 776.692 198.045C797.532 182.607 825.013 167.442 856.078 156.07C873.225 149.839 891.322 144.792 910.635 141.84C927.344 139.27 944.148 138.327 960.514 136.793C968.938 136.05 977.238 134.993 985.345 133.63C1011.97 129.004 1033.67 119.984 1054.21 109.165C1080.71 95.223 1105.96 78.2431 1137.06 65.5471C1139.58 64.5085 1142.13 63.509 1144.7 62.5483C1186.33 46.8769 1238.22 39.5553 1291.22 37.5535C1335.22 35.8945 1380.41 37.8495 1421.15 43.8314" stroke="#D9D9D9" stroke-width="0.5" stroke-miterlimit="10"/>
<path d="M32.9052 177.326C81.1171 178.105 126.648 186.611 166.786 198.824C205.988 210.819 238.301 227.246 270.957 242.037C304.174 257.078 340.025 270.623 374.457 285.414C382.111 288.693 389.936 292.011 397.994 295.275C443.198 313.516 496.195 330.068 552.809 325.753C605.572 321.734 640.239 299.777 673.253 279.019C678.413 275.787 683.432 272.616 688.186 269.501C702.495 260.154 715.48 251.111 727.638 241.819C745.252 228.367 761.696 214.238 781.867 200.717C805.217 185.073 832.764 171.109 863.732 159.217C880.878 152.721 898.43 147.308 916.869 143.811C932.862 140.773 948.73 139.254 964.146 137.198C972.061 136.182 979.818 134.88 987.356 133.303C1012.3 127.921 1032.31 118.411 1051.9 107.171C1077.03 92.6604 1102.1 75.1664 1133.96 62.525C1136.52 61.4864 1139.12 60.4972 1141.75 59.5574C1184.3 44.1196 1237.14 38.0131 1290.73 36.3463C1335.27 34.9676 1381.05 36.5566 1422.2 41.5804" stroke="#D9D9D9" stroke-width="0.5" stroke-miterlimit="10"/>
<path d="M31.0658 171.952C81.9744 172.824 129.937 182.319 171.353 195.81C211.88 209.051 243.803 227.324 276.802 243.509C308.133 258.861 342.986 272.328 376.453 287.127C383.888 290.414 391.526 293.725 399.397 296.973C443.51 315.121 496.367 331.439 551.952 326.687C605.058 322.154 636.997 298.733 671.118 278.077C676.433 274.852 681.686 271.752 686.705 268.73C701.747 259.687 715.791 251.236 728.916 242.489C747.87 229.84 765.671 216.38 787.026 203.396C812.161 188.285 840.423 174.545 871.339 162.403C888.391 155.681 905.491 149.863 923.089 145.836C938.365 142.323 953.297 140.22 967.685 137.642C975.104 136.343 982.329 134.781 989.304 132.968C1012.39 126.838 1030.94 116.837 1049.5 105.169C1073.31 90.09 1098.14 72.0976 1130.76 59.5106C1133.39 58.4902 1136.06 57.5166 1138.76 56.5742C1182.23 41.3779 1235.94 36.4787 1290.16 35.1468C1335.24 34.0407 1381.61 35.2792 1423.15 39.3294" stroke="#D9D9D9" stroke-width="0.5" stroke-miterlimit="10"/>
<path d="M29.2421 166.578C82.8161 167.582 133.242 178.035 175.936 192.795C217.803 207.368 249.337 227.363 282.694 244.981C312.217 260.559 345.979 274.12 378.479 288.895C385.696 292.182 393.131 295.485 400.831 298.725C443.899 316.772 496.616 332.833 551.11 327.669C604.575 322.614 633.723 297.728 668.998 277.157C674.5 273.948 679.909 270.926 685.271 267.982C701.077 259.243 716.165 251.384 730.257 243.174C750.52 231.327 769.708 218.53 792.232 206.091C817.172 192.273 848.176 178.121 879.023 165.588C896.06 158.641 912.645 152.425 929.402 147.853C943.945 143.873 957.958 141.193 971.317 138.086C978.235 136.499 984.927 134.678 991.346 132.633C1012.65 125.763 1029.72 115.28 1047.2 103.176C1069.75 87.5587 1094.24 68.9976 1127.67 56.4729C1130.37 55.4604 1133.08 54.4945 1135.84 53.5676C1180.24 38.6051 1234.84 34.9209 1289.67 33.9239C1335.3 33.0983 1382.25 33.9784 1424.19 37.0395" stroke="#D9D9D9" stroke-width="0.5" stroke-miterlimit="10"/>
<path d="M27.4183 161.211C83.6734 162.333 136.53 173.744 180.518 189.781C223.711 205.639 254.917 227.347 288.555 246.453C316.378 262.242 348.972 275.865 380.521 290.64C387.52 293.927 394.768 297.222 402.343 300.446C444.429 318.408 496.944 334.188 550.424 328.635C604.232 323.034 630.699 296.7 667.034 276.223C672.692 273.029 678.397 270.054 683.962 267.211C700.516 258.776 716.695 251.508 731.706 243.844C753.357 232.807 773.886 220.672 797.563 208.794C823.968 195.553 856.078 181.704 886.832 168.759C903.823 161.577 919.909 154.964 935.824 149.855C949.65 145.4 962.712 142.136 975.073 138.514C981.468 136.635 987.617 134.553 993.482 132.283C1013.03 124.665 1028.57 113.698 1044.92 101.166C1066.17 84.965 1090.45 65.9288 1124.62 53.4664C1127.36 52.4591 1130.14 51.501 1132.94 50.5923C1178.27 35.8712 1233.76 33.3943 1289.22 32.7244C1335.38 32.1792 1382.93 32.7244 1425.25 34.8275" stroke="#D9D9D9" stroke-width="0.5" stroke-miterlimit="10"/>
<path d="M25.5946 155.837C84.5308 157.083 139.819 169.452 185.085 186.767C229.619 203.902 260.544 227.269 294.431 247.926C320.603 263.854 351.949 277.609 382.5 292.385C389.281 295.672 396.327 298.959 403.668 302.168C444.648 320.036 497.099 335.528 549.411 329.593C603.577 323.439 627.348 295.687 664.758 275.28C670.603 272.102 676.527 269.189 682.372 266.448C699.658 258.316 716.867 251.649 732.875 244.506C755.867 234.279 777.783 222.814 802.613 211.45C830.421 198.723 863.685 185.24 894.33 171.898C911.289 164.49 926.877 157.48 941.95 151.833C955.059 146.903 967.186 143.063 978.518 138.911C984.4 136.745 990.016 134.404 995.337 131.901C1013.11 123.544 1027.12 112.071 1042.5 99.1175C1062.43 82.3479 1086.49 62.8054 1121.41 50.3976C1124.21 49.4006 1127.05 48.453 1129.92 47.5547C1176.17 33.0672 1232.55 31.8054 1288.63 31.4704C1335.31 31.2056 1383.46 31.3692 1426.19 32.522" stroke="#D9D9D9" stroke-width="0.5" stroke-miterlimit="10"/>
<path d="M23.7709 150.47C85.3881 151.833 143.124 165.16 189.668 183.752C235.526 202.189 266.234 227.199 300.339 249.398C324.952 265.435 354.895 279.354 384.511 294.122C391.089 297.417 397.932 300.696 405.087 303.897C445.006 321.664 497.333 336.86 548.491 330.551C603.047 323.837 624.012 294.659 662.56 274.346C668.561 271.176 674.734 268.325 680.829 265.677C698.863 257.849 717.116 251.766 734.107 245.176C758.423 235.751 781.742 224.925 807.711 214.129C837.046 201.947 871.417 188.815 901.968 175.068C918.896 167.427 933.953 160.012 948.216 153.827C960.577 148.429 971.8 144.021 982.087 139.332C987.449 136.896 992.534 134.311 997.316 131.59C1013.31 122.492 1025.78 110.56 1040.14 97.1469C1058.75 79.8009 1082.56 59.7599 1118.26 47.4067C1121.13 46.4175 1124.01 45.475 1126.94 44.5949C1174.12 30.3411 1231.38 30.2865 1288.08 30.2943C1335.3 30.2943 1384.04 30.1151 1427.16 30.2943" stroke="#D9D9D9" stroke-width="0.5" stroke-miterlimit="10"/>
<path d="M21.9471 145.096C86.2298 146.591 146.413 160.868 194.235 180.738C241.434 200.46 272.017 227.067 306.169 250.839C329.285 266.946 357.919 281.068 386.522 295.835C392.882 299.13 399.522 302.402 406.505 305.587C445.38 323.26 497.551 338.137 547.712 331.478C602.58 324.195 620.848 293.608 660.487 273.372C666.458 270.357 672.782 267.522 679.426 264.882C698.131 257.358 717.521 251.859 735.463 245.815C761.104 237.192 785.841 227.075 812.948 216.778C843.608 205.149 879.163 192.328 909.59 178.199C926.471 170.332 941.03 162.52 954.451 155.798C966.095 149.925 976.382 144.932 985.626 139.729C990.445 137.007 994.987 134.166 999.233 131.216C1013.46 121.386 1024.41 108.908 1037.72 95.1062C1055.02 77.1916 1078.6 56.6366 1115.05 44.3534C1117.98 43.3616 1120.93 42.4347 1123.92 41.5727C1172.02 27.5526 1230.15 28.7132 1287.49 29.0559C1335.24 29.3441 1384.57 28.7988 1428.08 28.0121" stroke="#D9D9D9" stroke-width="0.5" stroke-miterlimit="10"/>
<path d="M20.1234 139.745C87.0871 141.302 149.64 156.584 198.818 177.724C247.342 198.754 277.893 226.895 312.03 252.342C333.712 268.496 360.896 282.851 388.533 297.611C394.674 300.906 401.127 304.17 407.924 307.34C445.754 324.919 497.785 339.469 546.855 332.467C602.065 324.592 617.606 292.611 658.352 272.492C664.511 269.477 671.095 266.686 678.054 264.142C697.554 256.922 717.927 252.015 736.85 246.516C763.816 238.688 789.956 229.248 818.217 219.496C850.296 208.412 886.988 195.919 917.337 181.392C934.187 173.3 948.247 165.09 960.826 157.823C971.737 151.483 981.09 145.914 989.351 140.181C993.575 137.244 997.488 134.191 1001.37 130.904C1013.84 120.35 1023.19 107.358 1035.51 93.1356C1051.48 74.6524 1074.83 53.5833 1112.06 41.3624C1115.03 40.381 1118.06 39.4619 1121.1 38.6129C1170.12 24.8342 1229.13 27.2021 1287.09 27.8797C1334.5 28.3688 1381.94 27.6721 1429.21 25.7923" stroke="#D9D9D9" stroke-width="0.5" stroke-miterlimit="10"/>
<path d="M18.2997 134.355C87.9444 136.092 153.006 152.269 203.385 174.709C253.265 197.001 283.863 226.701 317.891 253.814C338.154 269.999 363.873 284.596 390.544 299.348C396.467 302.643 402.717 305.907 409.342 309.069C446.128 326.547 498.004 340.754 546.013 333.425C601.567 324.951 614.379 291.59 656.232 271.526C662.525 268.535 669.302 265.81 676.495 263.379C696.759 256.454 718.161 252.132 738.066 247.186C766.357 240.176 793.916 231.405 823.298 222.175C856.811 211.645 894.642 199.478 924.897 184.562C940.126 176.846 954.193 168.577 966.983 159.825C976.393 153.683 985.054 147.263 992.921 140.601C996.631 137.4 999.997 134.09 1003.35 130.562C1014.06 119.275 1021.9 105.769 1033.14 91.1338C1047.79 72.0742 1070.92 50.5066 1108.89 38.3403C1111.93 37.3667 1115.02 36.4553 1118.12 35.6219C1168 22.0847 1227.96 25.6599 1286.54 26.6646C1334.51 27.4579 1382.53 26.4164 1430.18 23.549" stroke="#D9D9D9" stroke-width="0.5" stroke-miterlimit="10"/>
<path d="M16.476 128.98C88.8485 130.842 156.295 148.001 207.968 171.679C259.157 195.28 289.927 226.467 323.767 255.286C342.784 271.495 366.866 286.341 392.554 301.093C398.275 304.388 404.323 307.643 410.761 310.79C446.503 328.183 498.206 342.032 545.156 334.391C601.037 325.293 611.153 290.57 654.096 270.591C660.572 267.613 667.585 264.94 675.046 262.608C696.026 255.987 718.504 252.256 739.375 247.855C768.991 241.624 797.968 233.555 828.489 224.855C863.451 214.885 902.404 203.046 932.55 187.725C947.816 179.79 961.46 171.114 973.28 161.826C982.018 155.189 989.76 148.238 996.443 141.03C999.561 137.548 1002.46 134.02 1005.27 130.227C1014.23 118.208 1020.51 104.188 1030.74 89.1321C1044.05 69.4961 1066.95 47.4222 1105.7 35.3182C1108.81 34.3523 1111.93 33.4566 1115.05 32.631C1165.94 19.3274 1226.73 24.1177 1285.96 25.4574C1334.51 26.5361 1383.15 25.1372 1431.13 21.2824" stroke="#D9D9D9" stroke-width="0.5" stroke-miterlimit="10"/>
<path d="M14.6522 123.614C89.6435 125.592 159.616 143.709 212.613 168.681C265.065 193.551 296.162 226.202 329.628 256.758C347.398 272.975 369.844 288.085 394.55 302.838C400.068 306.132 405.913 309.38 412.179 312.519C446.877 329.811 498.409 343.294 544.314 335.349C600.507 325.62 607.911 289.542 651.976 269.649C658.616 266.684 665.857 264.074 673.581 261.86C695.294 255.535 718.784 252.389 740.685 248.541C771.61 243.089 802.021 235.728 833.679 227.511C870.06 218.109 910.151 206.574 940.204 190.903C955.506 182.724 968.721 173.63 979.547 163.828C987.657 156.681 994.515 149.196 1000.04 141.458C1002.69 137.712 1005 133.887 1007.26 129.892C1014.48 117.141 1019.19 102.63 1028.38 87.1381C1040.37 66.9257 1063.05 44.3455 1102.55 32.3038C1105.66 31.338 1108.91 30.4578 1112.13 29.64C1163.92 16.5779 1225.58 22.5832 1285.42 24.2578C1334.56 25.6197 1383.84 23.8636 1432.1 19.0315" stroke="#D9D9D9" stroke-width="0.5" stroke-miterlimit="10"/>
<path d="M12.8129 118.239C90.5007 120.35 162.889 139.418 217.118 165.666C270.988 191.822 302.568 225.937 335.504 258.222C352.058 274.455 372.821 289.83 396.56 304.582C401.86 307.877 407.472 311.117 413.597 314.241C447.251 331.439 498.596 344.548 543.457 336.307C599.961 325.901 604.684 288.514 649.841 268.714C656.663 265.751 664.142 263.187 672.131 261.073C694.577 255.052 719.158 252.505 741.994 249.195C774.244 244.522 806.074 237.878 838.854 230.213C876.685 221.373 917.898 210.157 947.842 194.057C963.204 185.626 976.003 176.113 985.828 165.822C993.295 158.144 999.257 150.123 1003.63 141.871C1005.76 137.852 1007.53 133.778 1009.26 129.541C1014.73 116.058 1017.86 101.026 1026.03 85.1441C1036.69 64.3553 1059.15 41.2689 1099.41 29.2894C1102.63 28.3314 1105.88 27.459 1109.17 26.6568C1161.87 13.8361 1224.43 21.0487 1284.89 23.0583C1334.63 24.7211 1384.59 22.6204 1433.08 16.8271" stroke="#D9D9D9" stroke-width="0.5" stroke-miterlimit="10"/>
<path d="M10.9891 112.873C91.358 115.1 166.178 135.134 221.685 162.652C276.895 190.1 309.084 225.641 341.365 259.695C357.038 276.215 376.217 291.846 398.571 306.319C403.713 309.674 409.202 312.893 415.016 315.962C447.625 333.098 498.783 345.786 542.599 337.265C599.4 326.228 601.442 287.493 647.721 267.78C654.713 264.819 662.422 262.31 670.666 260.31C693.844 254.577 719.486 252.607 743.288 249.865C776.863 245.97 810.127 240.035 844.029 232.893C883.31 224.644 925.645 213.74 955.511 197.219C970.938 188.508 983.307 178.557 992.094 167.785C998.921 159.567 1003.99 151.011 1007.21 142.261C1008.77 137.969 1010.07 133.638 1011.24 129.159C1014.98 114.952 1016.47 99.3979 1023.71 83.08C1032.96 61.7149 1055.27 38.1377 1096.31 26.2206C1099.59 25.2703 1102.9 24.4032 1106.24 23.6191C1159.88 11.0321 1223.3 19.4598 1284.39 21.7965C1335.33 23.7593 1388.23 21.0721 1434.03 14.4826" stroke="#D9D9D9" stroke-width="0.5" stroke-miterlimit="10"/>
<path d="M9.16541 107.498C92.2153 109.835 169.482 130.865 226.267 159.638C282.803 188.371 315.739 225.322 347.242 261.167C361.504 277.415 378.775 293.327 400.597 308.064C405.527 311.415 410.819 314.629 416.45 317.691C448.015 334.695 498.954 347.017 541.773 338.223C598.839 326.539 598.231 286.473 645.601 266.837C652.785 263.888 660.728 261.434 669.216 259.539C693.127 254.087 719.829 252.724 744.613 250.527C779.513 247.411 814.195 242.201 849.236 235.58C889.934 227.877 933.408 217.276 963.164 200.39C978.655 191.4 990.603 181.027 998.376 169.818C1004.55 161.047 1008.73 151.957 1010.85 142.72C1011.94 138.164 1012.62 133.568 1013.26 128.864C1015.26 113.917 1015.2 97.8557 1021.35 81.1172C1029.29 59.1757 1051.37 35.0922 1093.16 23.2297C1096.5 22.2898 1099.87 21.433 1103.28 20.6593C1157.84 8.31381 1222.15 17.9488 1283.84 20.6204C1335.28 22.8636 1388.83 19.8415 1435.04 12.2628" stroke="#D9D9D9" stroke-width="0.5" stroke-miterlimit="10"/>
<path d="M7.34167 102.124C93.0727 104.601 172.771 126.55 230.835 156.647C288.898 186.743 322.551 225.018 353.103 262.662C366.29 278.926 381.768 295.095 402.593 309.832C407.296 313.181 412.392 316.388 417.853 319.436C448.373 336.346 499.095 348.255 540.9 339.212C598.215 326.797 594.989 285.468 643.45 265.926C650.827 262.982 659.01 260.582 667.751 258.799C692.395 253.658 720.14 252.856 745.906 251.22C782.116 248.93 818.232 244.397 854.395 238.283C896.481 231.156 941.139 220.859 970.787 203.575C987.387 193.886 997.909 182.88 1004.63 171.843C1010.12 162.507 1013.4 152.882 1014.4 143.164C1014.98 138.335 1015.13 133.49 1015.23 128.544C1015.49 112.865 1013.84 96.2979 1018.97 79.1388C1025.58 56.6288 1047.43 32.0312 1090 20.231C1093.39 19.2963 1096.82 18.4499 1100.29 17.6917C1155.76 5.57991 1220.95 16.4299 1283.28 19.4365C1335.3 21.9523 1389.39 18.5486 1436.04 10.0274" stroke="#D9D9D9" stroke-width="0.5" stroke-miterlimit="10"/>
<path d="M5.51794 96.7574C93.9144 99.3512 176.138 122.258 235.37 153.609C294.603 184.96 329.534 224.644 358.963 264.111C371.122 280.398 384.761 296.825 404.603 311.554C409.099 314.899 414.008 318.102 419.302 321.142C448.778 337.958 499.266 349.455 540.09 340.147C597.623 327.015 591.778 284.425 641.408 264.96C648.971 262.026 657.38 259.681 666.348 258.004C691.724 253.16 720.53 252.949 747.278 251.867C785.395 250.224 823.056 246.568 859.632 240.962C903.277 234.412 948.948 224.418 978.502 206.745C995.072 196.822 1005 185.411 1010.96 173.837C1015.76 163.936 1018.14 153.78 1018.05 143.592C1018.05 138.491 1017.74 133.381 1017.27 128.201C1015.82 111.782 1012.59 94.7089 1016.68 77.1371C1021.98 54.0506 1043.6 28.9546 1086.91 17.2088C1090.37 16.2741 1093.87 15.4382 1097.39 14.7008C1153.78 2.82264 1219.86 14.8799 1282.88 18.2292C1335.44 21.0254 1390.12 17.2634 1437.19 7.7764" stroke="#D9D9D9" stroke-width="0.5" stroke-miterlimit="10"/>
<path d="M3.69421 91.383C94.7717 94.1092 179.365 117.975 239.984 150.579C300.604 183.184 336.627 224.302 364.84 265.568C375.969 281.885 387.738 298.546 406.614 313.275C410.853 316.62 415.54 319.818 420.643 322.848C449.074 339.57 499.313 350.646 539.108 341.089C596.859 327.233 588.426 283.389 639.101 263.979C646.858 261.044 655.511 258.753 664.727 257.194C690.836 252.622 720.701 252.996 748.416 252.521C787.705 251.693 826.691 248.702 864.667 243.603C909.684 237.636 956.54 227.939 985.984 209.869C1002.52 199.743 1012.03 187.912 1017.07 175.8C1021.17 165.324 1022.66 154.633 1021.49 143.974C1021.01 138.607 1020.12 133.233 1019.11 127.82C1015.99 110.684 1011.11 93.0966 1014.17 75.0963C1018.14 51.4413 1039.53 25.8312 1083.62 14.1555C1087.08 13.2341 1090.64 12.4047 1094.27 11.6709C1151.59 0.0341596 1218.55 13.2988 1282.13 16.9829C1335.22 20.0518 1390.49 15.9392 1437.93 5.47863" stroke="#D9D9D9" stroke-width="0.5" stroke-miterlimit="10"/>
<path d="M1.87048 86.001C95.629 88.8439 182.685 113.667 244.567 147.534C306.449 181.4 343.953 223.928 370.701 267.009C380.864 283.365 390.715 300.26 408.625 314.989C412.661 318.327 417.167 321.518 422.108 324.538C449.495 341.167 499.484 351.799 538.359 342.016C596.267 327.412 585.293 282.337 637.075 263.036C645.034 260.109 653.924 257.873 663.371 256.423C690.197 252.155 721.138 253.113 749.819 253.16C790.257 253.178 830.563 250.859 869.936 246.251C916.402 240.892 964.38 231.452 993.731 213C1010.22 202.625 1019.22 190.412 1023.44 177.77C1027.1 166.718 1027.09 155.323 1025.17 144.364C1024.17 138.732 1022.76 133.101 1021.2 127.454C1016.29 109.539 1009.88 91.4844 1011.92 73.0557C1014.56 48.8321 1035.72 22.7157 1080.51 11.1024C1084.03 10.1873 1087.64 9.36827 1091.34 8.64883C1149.57 -2.75421 1217.43 11.7644 1281.63 15.7368C1335.39 19.0701 1389.94 14.722 1438.96 3.19656" stroke="#D9D9D9" stroke-width="0.5" stroke-miterlimit="10"/>
<path d="M0 80.6421C96.424 83.6097 185.896 109.391 249.088 144.566C312.279 179.741 351.357 223.64 376.531 268.527C387.8 288.638 397.153 309.809 423.48 326.314C449.807 342.818 499.578 353.061 537.502 343.036C595.565 327.677 582.051 281.371 634.939 262.164C666.878 250.558 711.131 253.09 751.128 253.892C792.704 254.723 834.329 253.078 875.126 248.993C922.995 244.195 972.127 235.089 1001.38 216.232C1032.22 196.355 1035.07 169.499 1028.76 144.854C1022.44 120.21 1008.24 95.9163 1009.57 71.1162C1010.89 46.3162 1031.81 19.7091 1077.44 8.14247C1138.98 -7.43544 1212.27 9.97292 1281.16 14.5918C1335.64 18.1946 1391.03 13.4554 1440 1.00002" stroke="#D9D9D9" stroke-width="0.5" stroke-miterlimit="10"/>
</g>
</svg>
