<svg width="163" height="148" viewBox="0 0 163 148" fill="none" xmlns="http://www.w3.org/2000/svg">
<path d="M64.9247 62.0002C61.3996 56.4806 58.9247 48 58.9247 48L57.9247 43.5L57.4247 36.5002C57.4247 36.5002 64.7537 36.1218 69.4247 36.5002C74.9604 36.9488 78.1377 37.2995 83.4247 39.0002C89.9093 41.0862 93.5516 42.8132 98.9247 47.0002C104.271 51.1666 106.597 54.4064 110.425 60.0002C114.962 66.6308 116.425 71 117.925 75.5C119.16 79.2048 119.425 88.5002 119.425 88.5002C119.425 88.5002 105.754 89.1866 97.4247 87.0002C89.7344 84.9816 85.2916 83.2623 78.9247 78.5002C72.1575 73.4388 69.4731 69.1223 64.9247 62.0002Z" fill="url(#paint0_radial_102_20)"/>
<path d="M134.425 46.4998C132.066 48.6303 128.925 52.4998 128.925 52.4998V66.4998C128.925 66.4998 134.893 65.749 138.925 64.9998C141.96 64.4357 145.925 62.1595 148.425 60.4998C150.925 58.8401 153.455 57.3356 156.925 52.4998C158.819 49.8592 159.808 47.0516 160.925 43.9998C162.14 40.679 162.425 36.4998 162.425 36.4998C162.425 36.4998 157.207 36.4703 153.925 36.9998C150.323 37.5807 147.927 38.0449 144.925 39.4998C140.49 41.6488 138.082 43.1967 134.425 46.4998Z" fill="#52AE95" stroke="#52AE95"/>
<path d="M118.925 139C118.925 139 99.9912 146.857 85.7651 147.808C71.539 148.758 57.2968 146.174 44.5136 140.321C31.7304 134.469 20.8712 125.562 13.0607 114.522C5.25022 103.483 0.772483 90.7125 0.0913012 77.5341C-0.589881 64.3557 2.55026 51.2485 9.18649 39.5701C15.8227 27.8916 25.7137 18.0667 37.8349 11.1129C49.9561 4.1591 63.8668 0.329363 78.126 0.0203103C92.3853 -0.288743 106.475 2.93413 118.935 9.35517V34C108.425 21.5 95.4247 17.5688 78.5798 17.9339C67.7733 18.1681 57.231 21.0705 48.0448 26.3405C38.8586 31.6105 31.3627 39.0564 26.3334 47.907C21.3041 56.7576 18.9243 66.691 19.4405 76.6784C19.9567 86.6657 23.3502 96.3438 29.2695 104.71C35.1887 113.077 43.4185 119.827 53.1063 124.262C62.7941 128.697 73.5877 130.656 84.3691 129.936C95.1505 129.215 112.925 124.262 118.925 116V139Z" fill="url(#paint1_radial_102_20)"/>
<path d="M123.925 12.5L128.925 19.5V128.5L123.925 137V12.5Z" fill="#52AE95"/>
<defs>
<radialGradient id="paint0_radial_102_20" cx="0" cy="0" r="1" gradientUnits="userSpaceOnUse" gradientTransform="translate(79 36) rotate(92.3859) scale(60.0521 110.941)">
<stop stop-color="#54B193"/>
<stop offset="0.1125" stop-color="#7AB789"/>
<stop offset="0.196165" stop-color="#A5BE7B"/>
<stop offset="0.289583" stop-color="#9BBA68"/>
<stop offset="0.372917" stop-color="#BAC16D"/>
<stop offset="0.482292" stop-color="#D6C66A"/>
<stop offset="0.593428" stop-color="#B3C069"/>
<stop offset="0.669792" stop-color="#D0C969"/>
<stop offset="0.732292" stop-color="#A0BC67"/>
<stop offset="0.805208" stop-color="#A0BC7D"/>
<stop offset="0.890625" stop-color="#77B689"/>
<stop offset="0.989583" stop-color="#61B091"/>
</radialGradient>
<radialGradient id="paint1_radial_102_20" cx="0" cy="0" r="1" gradientUnits="userSpaceOnUse" gradientTransform="translate(83 140.5) rotate(-91.2499) scale(137.533 172.235)">
<stop stop-color="#54B193"/>
<stop offset="0.1125" stop-color="#7AB789"/>
<stop offset="0.196165" stop-color="#A5BE7B"/>
<stop offset="0.289583" stop-color="#9BBA68"/>
<stop offset="0.372917" stop-color="#BAC16D"/>
<stop offset="0.482292" stop-color="#D6C66A"/>
<stop offset="0.593428" stop-color="#B3C069"/>
<stop offset="0.669792" stop-color="#D0C969"/>
<stop offset="0.732292" stop-color="#A0BC67"/>
<stop offset="0.805208" stop-color="#A0BC7D"/>
<stop offset="0.890625" stop-color="#77B689"/>
<stop offset="0.989583" stop-color="#61B091"/>
</radialGradient>
</defs>
</svg>
