<svg width="504" height="323" viewBox="0 0 504 323" fill="none" xmlns="http://www.w3.org/2000/svg">
<path d="M7.08597 202.399C85.167 181.979 165.985 160.353 217.299 122.87C238.718 107.214 254.442 89.1033 279.734 75.2576C305.027 61.412 344.254 52.3759 379.421 60.1968C403.317 65.505 420.477 77.4293 433.265 89.6336C446.052 101.838 455.914 114.98 471.848 126.12C490.352 139.06 515.935 148.517 541.808 156.905C571.485 166.508 601.951 174.993 633.027 182.309C665.289 189.945 699.658 196.766 724.338 210.58C744.736 221.991 756.621 237.666 756.517 253C756.413 268.334 744.289 283.109 723.728 293.036" stroke="#EDED69" stroke-width="0.5" stroke-miterlimit="10"/>
<path d="M6.77194 205.086C55.9424 192.946 106.151 179.992 149.434 162.822C175.152 152.613 198.271 140.961 217.318 127.053C229.609 118.086 240.028 108.333 251.386 98.9355C259.649 91.8814 268.934 85.3317 279.139 79.3581C301.793 66.4436 335.481 57.3672 367.058 60.9017C369.947 61.2259 372.816 61.66 375.647 62.2014C396.105 66.1485 411.506 75.0651 423.586 84.7632C425.139 85.9853 426.601 87.2148 427.971 88.4519C440.615 99.5585 450.681 111.609 466.783 121.946C483.573 132.661 506.108 140.989 529.141 148.716C531.86 149.626 534.58 150.537 537.312 151.433C549.559 155.481 561.824 159.453 574.103 163.267C588.28 167.707 602.575 171.936 617.026 175.925C619.965 176.729 622.918 177.527 625.883 178.318C656.826 186.561 689.92 194.062 714.419 208.105C734.808 219.767 748.934 234.806 750.443 250.315C750.498 250.847 750.54 251.378 750.557 251.907C750.755 259.729 747.959 267.311 742.397 274.036C736.014 281.786 726.865 288.438 715.583 293.532" stroke="#EDED69" stroke-width="0.5" stroke-miterlimit="10"/>
<path d="M6.4453 207.772C55.7814 196.319 106.061 183.708 149.425 166.75C175.282 156.66 198.348 145.042 217.339 131.214C229.612 122.314 240.043 112.555 251.278 103.146C259.451 96.0949 268.568 89.5042 278.546 83.4362C300.709 70.2967 333.195 60.7364 363.583 63.1994C366.351 63.4229 369.108 63.7532 371.838 64.1881C391.457 67.3227 406.434 75.2326 418.313 83.92C419.803 85.0143 421.246 86.12 422.643 87.237C435.143 97.2536 445.371 108.271 461.682 117.746C478.665 127.66 501.527 135.495 524.487 143.208L532.644 145.947C544.874 150.039 556.948 154.225 568.886 158.239C582.756 162.936 596.43 167.449 610.26 171.722C613.086 172.598 615.913 173.459 618.741 174.305C648.365 183.163 680.158 191.34 704.502 205.608C725.54 217.975 742.032 232.946 744.417 249.125C744.495 249.674 744.56 250.23 744.612 250.785C745.141 259.01 742.252 267.002 736.224 273.995C729.318 282.045 719.497 288.899 707.46 294.068" stroke="#EDED69" stroke-width="0.5" stroke-miterlimit="10"/>
<path d="M6.13072 210.459C55.6201 199.692 105.983 187.416 149.428 170.68C175.413 160.699 198.411 149.152 217.356 135.419C229.604 126.517 240.054 116.836 251.154 107.401C259.239 100.349 268.199 93.7175 277.96 87.5604C299.621 74.1949 330.891 64.1725 360.116 65.5434C362.767 65.6643 365.417 65.8884 368.05 66.2144C386.964 68.5784 401.37 75.4538 413.061 83.1315C414.527 84.1067 415.952 85.0884 417.335 86.0769C429.744 94.9696 440.112 104.913 456.603 113.585C473.82 122.64 497.045 130.001 519.956 137.711C522.687 138.63 525.401 139.55 528.098 140.471C540.296 144.66 552.233 148.987 563.756 153.211C577.243 158.174 590.272 162.968 603.555 167.539C606.252 168.47 608.949 169.392 611.648 170.303C639.948 179.813 670.444 188.646 694.621 203.12C716.327 216.117 735.179 231.105 738.427 247.945C738.54 248.528 738.628 249.101 738.703 249.681C739.77 258.073 736.533 266.522 730.099 273.974C722.648 282.318 712.139 289.366 699.337 294.604" stroke="#EDED69" stroke-width="0.5" stroke-miterlimit="10"/>
<path d="M5.81685 213.147C55.4472 203.064 105.856 191.121 149.431 174.617C175.543 164.739 198.46 153.269 217.376 139.595C229.593 130.767 239.992 121.097 251.045 111.635C259.036 104.588 267.832 97.9258 277.375 91.6924C298.533 78.0934 328.598 67.625 356.649 67.8952C359.183 67.9205 361.725 68.0411 364.261 68.2561C382.4 69.7902 396.305 75.6829 407.808 82.3509C409.253 83.1917 410.659 84.0522 412.027 84.9171C424.308 92.6753 434.804 101.559 451.538 109.411C468.988 117.622 492.514 124.512 515.413 132.212C518.144 133.131 520.862 134.057 523.541 134.994C535.72 139.258 547.431 143.757 558.626 148.19C571.721 153.372 584.176 158.492 596.763 163.356C599.327 164.338 601.891 165.319 604.48 166.302C631.448 176.442 660.631 185.95 684.669 200.605C707.014 214.259 728.23 229.225 732.353 246.736C732.501 247.337 732.624 247.944 732.722 248.548C734.157 257.3 730.772 266.172 723.89 273.923C716.403 282.364 704.946 289.552 691.203 295.117" stroke="#EDED69" stroke-width="0.5" stroke-miterlimit="10"/>
<path d="M5.50262 215.834C55.2862 206.437 105.816 194.833 149.422 178.546C175.661 168.786 198.535 157.381 217.395 143.778C229.596 134.987 239.979 125.361 250.923 115.867C258.849 108.82 267.484 102.107 276.782 95.763C297.497 81.9735 326.298 71.0161 353.174 70.193C355.595 70.1113 358.034 70.1235 360.478 70.2298C377.81 71.0152 391.233 75.8504 402.56 81.5098C403.978 82.2261 405.37 82.963 406.724 83.7043C418.873 90.3811 429.607 98.2073 446.448 105.235C464.13 112.609 488.02 119.025 510.843 126.735C513.574 127.654 516.29 128.594 518.969 129.54C531.118 133.869 542.628 138.543 553.484 143.161C566.185 148.593 578.018 154.004 589.984 159.167C592.381 160.211 594.865 161.262 597.325 162.296C622.971 173.08 650.841 183.265 674.735 198.152C697.72 212.472 721.324 227.411 726.314 245.56C726.484 246.186 726.63 246.81 726.751 247.44C728.552 256.559 725.032 265.855 717.703 273.897C709.744 282.642 697.54 289.988 683.055 295.651" stroke="#EDED69" stroke-width="0.5" stroke-miterlimit="10"/>
<path d="M5.17666 218.513C55.1135 209.801 105.738 198.549 149.424 182.483C175.792 172.825 198.598 161.491 217.414 147.961C229.587 139.213 239.955 129.617 250.838 120.103C258.678 113.053 267.151 106.298 276.224 99.8665C296.448 85.8521 324.033 74.4325 349.734 72.5163C352.035 72.3377 354.363 72.2435 356.705 72.2344C373.295 72.2385 386.208 76.0445 397.335 80.7007C398.727 81.2848 400.104 81.8982 401.431 82.515C413.385 88.1127 424.385 94.8605 441.407 101.063C459.322 107.593 483.525 113.538 506.315 121.207C509.053 122.132 511.757 123.076 514.426 124.041C526.127 128.34 537.46 133.048 548.366 138.141C560.686 143.823 571.91 149.528 583.255 154.982C585.571 156.095 587.877 157.2 590.207 158.299C614.531 169.713 641.077 180.581 664.83 195.663C688.583 210.744 714.495 225.579 720.296 244.417C720.503 245.061 720.683 245.718 720.827 246.365C722.996 255.844 719.314 265.578 711.551 273.904C703.131 282.954 690.169 290.442 674.942 296.218" stroke="#EDED69" stroke-width="0.5" stroke-miterlimit="10"/>
<path d="M4.85925 221.238C54.9468 213.243 105.657 202.296 149.474 186.455C175.968 176.907 198.719 165.645 217.479 152.187C229.623 143.482 239.989 133.924 250.738 124.376C258.639 117.361 266.705 110.437 275.663 104.008C295.384 89.7681 321.752 77.894 346.291 74.878C348.478 74.6062 350.698 74.4086 352.94 74.286C368.739 73.5047 381.119 76.2717 392.093 79.929C393.484 80.3906 394.822 80.8707 396.147 81.3726C408.023 85.8324 419.172 91.5455 436.351 96.9277C454.511 102.615 479.041 108.083 501.781 115.748C504.528 116.673 507.227 117.625 509.878 118.603C521.505 122.96 532.663 127.823 543.258 133.153C555.183 139.093 565.787 145.081 576.558 150.846C578.733 152.016 580.934 153.181 583.123 154.337C606.03 166.342 631.25 177.893 654.887 193.178C679.15 208.845 707.518 223.728 714.233 243.231C714.473 243.909 714.677 244.584 714.856 245.264C717.392 255.103 713.562 265.26 705.34 273.876C696.459 283.223 682.773 290.903 666.782 296.751" stroke="#EDED69" stroke-width="0.5" stroke-miterlimit="10"/>
<path d="M4.54774 223.887C54.7788 216.546 105.582 205.967 149.43 190.35C176.039 180.912 198.735 169.713 217.449 156.351C229.578 147.683 239.928 138.162 250.581 128.574C258.396 121.545 266.327 114.617 275.032 108.076C294.26 93.6482 319.418 81.2512 342.779 77.1648C344.84 76.7929 346.94 76.4882 349.07 76.2521C364.114 74.696 375.947 76.4306 386.759 79.0803C388.123 79.4097 389.447 79.774 390.754 80.1827C402.489 83.5296 413.851 88.1829 431.184 92.7755C449.602 97.6279 474.431 102.625 497.135 110.279C499.878 111.206 502.58 112.169 505.218 113.164C516.786 117.572 527.767 122.595 538.024 128.17C549.556 134.359 559.563 140.64 569.664 146.693L575.91 150.279C597.567 162.958 621.447 175.222 644.97 190.681C669.846 207.026 700.629 221.869 708.206 242.041C708.471 242.737 708.697 243.436 708.899 244.141C711.766 254.322 707.824 264.928 699.167 273.835C689.813 283.486 675.319 291.319 658.66 297.272" stroke="#EDED69" stroke-width="0.5" stroke-miterlimit="10"/>
<path d="M4.18429 226.57C54.5687 219.915 105.442 209.678 149.371 194.274C176.17 184.951 198.784 173.83 217.486 160.482C229.574 151.857 239.92 142.373 250.463 132.769C258.204 125.726 265.998 118.794 274.44 112.138C293.18 97.4555 317.116 84.6571 339.342 79.4503C341.37 78.9797 343.369 78.5602 345.36 78.2317C356.947 76.2242 369.453 76.2263 381.586 78.2376C382.911 78.4414 384.233 78.6755 385.529 78.9304C397.096 81.1624 408.648 84.7538 426.191 88.485C444.867 92.4878 469.997 97.0211 492.664 104.664C495.419 105.59 498.113 106.559 500.744 107.572C512.259 112.036 523.07 117.215 532.992 123.02C544.141 129.467 553.539 136.041 563.02 142.377C564.949 143.672 566.878 144.959 568.832 146.24C589.062 159.632 611.631 172.564 635.014 188.203C660.54 205.238 693.725 220.039 702.165 240.881C702.465 241.602 702.726 242.327 702.951 243.049C706.232 253.624 702.096 264.626 692.991 273.825C683.177 283.781 667.972 291.784 650.51 297.829" stroke="#EDED69" stroke-width="0.5" stroke-miterlimit="10"/>
<path d="M3.95679 229.265C54.4944 223.295 105.452 213.386 149.497 198.221C176.373 189.028 198.934 177.94 217.576 164.701C229.648 156.121 239.979 146.674 250.425 137.039C258.081 129.981 265.731 122.983 273.929 116.277C292.092 101.354 314.824 88.1097 335.812 81.8121C337.727 81.2096 339.632 80.7209 341.509 80.2757C352.345 77.6322 364.255 76.6699 376.27 77.4669C377.566 77.5765 378.862 77.6861 380.157 77.7956C391.557 78.9279 403.46 81.4483 421.046 84.3804C439.994 87.5118 465.423 91.5965 488.042 99.22C490.796 100.156 493.485 101.133 496.108 102.15C507.571 106.675 518.205 112.017 527.77 118.053C538.513 124.748 547.303 131.607 556.173 138.259C557.973 139.604 559.773 140.956 561.597 142.303C580.549 156.259 601.766 169.895 625.12 185.722C651.235 203.442 686.823 218.194 696.138 239.706C696.461 240.444 696.745 241.194 696.992 241.949C700.654 252.877 696.344 264.308 686.842 273.802C676.555 284.055 660.603 292.223 642.399 298.366" stroke="#EDED69" stroke-width="0.5" stroke-miterlimit="10"/>
<path d="M3.59298 231.948C54.2845 226.656 105.337 217.099 149.426 202.145C176.419 193.037 198.922 182.051 217.518 168.916C229.562 160.371 239.88 150.932 250.226 141.303C257.808 134.231 265.326 127.191 273.269 120.41C291.003 105.267 312.53 91.5697 332.372 84.1278C334.169 83.4618 335.949 82.8326 337.747 82.289C350.391 78.4047 360.66 77.041 371.044 76.6579C372.292 76.6028 373.598 76.591 374.877 76.5998C386.059 76.6282 398.216 78.0691 415.994 80.1919C435.199 82.4812 460.929 86.0945 483.511 93.7224C486.265 94.6587 488.948 95.6501 491.561 96.6966C502.979 101.288 513.443 106.791 522.651 113.048C533.011 120.002 541.193 127.153 549.454 134.098C551.136 135.509 552.807 136.919 554.513 138.348C572.135 152.895 591.986 167.241 615.202 183.232C641.917 201.645 679.92 216.348 690.064 238.489C690.42 239.283 690.73 240.028 691.012 240.809C695.027 252.103 690.595 263.959 680.608 273.748C669.848 284.305 653.149 292.632 634.204 298.873" stroke="#EDED69" stroke-width="0.5" stroke-miterlimit="10"/>
<path d="M3.27858 234.635C54.1234 230.029 105.247 220.807 149.417 206.073C176.549 197.077 198.984 186.162 217.491 173.05C229.506 164.556 239.818 155.184 250.07 145.494C257.567 138.407 264.938 131.333 272.639 124.469C289.87 109.109 310.182 94.941 328.848 86.4136C330.554 85.6405 332.219 84.9098 333.916 84.243C345.779 79.597 355.501 77.2085 365.699 75.7929C366.957 75.6164 368.211 75.4779 369.465 75.347C380.528 74.295 392.889 74.6295 410.822 75.955C430.286 77.3872 456.301 80.5659 478.836 88.1593C481.607 89.0969 484.29 90.0883 486.886 91.1335C498.32 95.8009 508.657 101.488 517.524 107.989C527.478 115.192 535.063 122.629 542.678 129.87C544.231 131.347 545.772 132.815 547.35 134.286C564.83 150.575 584.198 166.109 605.284 180.75C632.585 199.877 673.017 214.503 684.059 237.346C684.452 238.144 684.795 238.937 685.101 239.728C689.508 251.391 684.914 263.678 674.481 273.75C663.261 284.604 645.803 293.096 626.117 299.427" stroke="#EDED69" stroke-width="0.5" stroke-miterlimit="10"/>
<path d="M2.96425 237.322C53.95 233.401 105.165 224.561 149.432 210.011C176.68 201.116 199.071 190.274 217.572 177.238C229.571 168.789 239.867 159.454 250.01 149.732C257.433 142.631 264.659 135.513 272.106 128.575C288.835 112.981 307.953 98.3684 325.445 88.7478C327.034 87.8808 328.597 87.0345 330.19 86.2672C341.274 80.852 350.46 77.4473 360.56 74.9914C361.827 74.701 363.018 74.4348 364.281 74.19C375.187 72.0545 387.779 71.2772 405.867 71.7978C425.59 72.3727 451.907 75.0724 474.403 82.6855C477.182 83.6238 479.856 84.6221 482.453 85.6597C493.81 90.3893 503.938 96.2257 512.398 102.916C521.969 110.384 528.936 118.075 535.927 125.645C537.363 127.173 538.787 128.708 540.223 130.244C555.261 146.101 572.344 161.88 595.369 178.222C623.272 198.019 666.13 212.613 678.048 236.127C678.465 236.927 678.829 237.76 679.158 238.583C683.931 250.614 679.178 263.322 668.297 273.686C656.617 284.837 638.411 293.503 617.983 299.932" stroke="#EDED69" stroke-width="0.5" stroke-miterlimit="10"/>
<path d="M2.65012 240.009C53.7892 236.774 105.091 228.232 149.423 213.94C175.348 205.793 198.409 194.79 217.579 181.42C229.549 173.014 239.843 163.71 249.888 153.964C257.226 146.848 264.318 139.697 271.572 132.681C287.823 116.855 305.701 101.786 322.029 91.0809C323.515 90.1134 324.962 89.1656 326.441 88.2816C336.756 82.1057 345.422 77.6555 355.358 74.192C356.549 73.7805 357.775 73.3874 359.012 73.0104C369.773 69.7924 382.608 67.9119 400.838 67.6342C420.822 67.3367 447.449 69.5963 469.896 77.1976C472.675 78.136 475.345 79.1874 477.93 80.2163C489.229 85.0308 499.152 91.0397 507.189 97.9342C516.354 105.651 522.723 113.666 529.094 121.497C530.385 123.089 531.692 124.683 533.015 126.278C546.707 142.771 562.437 159.261 585.374 175.771C613.923 196.303 659.197 210.834 671.993 234.988C672.444 235.829 672.832 236.679 673.182 237.527C678.262 249.905 673.422 263.05 662.107 273.705C649.953 285.16 630.999 294.007 609.832 300.512" stroke="#EDED69" stroke-width="0.5" stroke-miterlimit="10"/>
<path d="M2.32332 242.696C53.6273 240.155 105.001 231.939 149.425 217.877C175.381 209.855 198.458 198.93 217.598 185.603C229.552 177.235 239.818 167.974 249.742 158.195C257.006 151.065 263.952 143.878 270.903 136.776C286.614 120.721 303.324 105.201 318.465 93.4018C319.798 92.3297 321.203 91.2866 322.568 90.2935C332.114 83.3569 340.255 77.9145 350.021 73.3816C351.185 72.843 352.384 72.3252 353.619 71.8283C364.236 67.5279 377.29 64.5268 395.673 63.4595C415.918 62.282 442.843 64.1005 465.253 71.6987C467.999 72.6284 470.676 73.6432 473.273 74.7391C484.601 79.622 494.403 85.8005 502.085 92.9007C510.855 100.874 516.616 109.174 522.39 117.307C523.561 118.935 524.738 120.591 525.922 122.277C538.295 139.377 552.645 156.606 575.505 173.285C604.581 194.496 652.309 208.968 665.953 233.812C666.439 234.679 666.863 235.548 667.236 236.421C672.744 249.171 667.695 262.734 655.932 273.687C643.318 285.448 623.618 294.438 601.696 301.055" stroke="#EDED69" stroke-width="0.5" stroke-miterlimit="10"/>
<path d="M2.00992 245.375C53.4555 243.511 104.923 235.656 149.404 221.805C175.392 213.911 198.489 203.067 217.605 189.786C229.494 181.457 239.793 172.237 249.645 162.429C256.823 155.285 263.623 148.055 270.332 140.878C285.542 124.582 301.034 108.623 315.012 95.7318C316.279 94.5623 317.532 93.4146 318.793 92.3058C327.569 84.639 335.189 78.1587 344.782 72.5792C345.92 71.911 347.107 71.2469 348.326 70.6467C358.81 65.2648 372.07 61.1498 390.607 59.2928C411.103 57.2039 438.336 58.6203 460.71 66.2078C463.463 67.1364 466.14 68.1592 468.727 69.271C480.044 74.2407 489.684 80.5912 496.979 87.8821C505.342 96.1192 510.469 104.702 515.632 113.158C516.681 114.867 517.733 116.582 518.789 118.302C529.839 136.055 542.802 153.969 565.597 170.834C595.223 192.742 645.416 207.154 659.924 232.66C660.433 233.544 660.88 234.438 661.288 235.336C667.163 248.454 661.966 262.44 649.757 273.677C636.709 285.715 616.225 294.868 593.559 301.605" stroke="#EDED69" stroke-width="0.5" stroke-miterlimit="10"/>
<path d="M1.6956 248.063C53.2945 246.884 104.845 239.364 149.419 225.743C175.438 217.976 198.553 207.21 217.636 193.97C229.521 185.687 239.793 176.495 249.534 166.67C256.64 159.504 263.294 152.239 269.749 144.98C284.456 128.458 298.757 112.039 311.558 98.0619C312.722 96.7995 313.859 95.5426 315.019 94.3258C323.044 85.8311 330.136 78.3888 339.544 71.7769C340.666 70.9927 341.825 70.2192 343.032 69.4727C354.503 62.267 369.199 57.3074 385.541 55.1261C406.282 52.1942 433.841 53.1412 456.166 60.7169C458.921 61.6457 461.594 62.676 464.169 63.8018C475.485 68.8563 484.958 75.385 491.836 82.868C499.817 91.3557 504.373 100.227 508.879 108.955C509.798 110.73 510.721 112.508 511.647 114.289C521.374 132.694 532.96 151.317 555.668 168.328C585.868 190.941 638.542 205.265 653.886 231.462C654.418 232.37 654.9 233.29 655.331 234.213C661.585 247.692 656.241 262.101 643.583 273.637C630.037 285.991 608.83 295.313 585.425 302.117" stroke="#EDED69" stroke-width="0.5" stroke-miterlimit="10"/>
<path d="M1.38058 250.757C53.1334 250.257 104.694 243.067 149.425 229.642C175.471 222.003 198.602 211.317 217.657 198.123C229.556 189.683 240.184 180.567 249.427 170.874C256.447 163.693 262.932 156.375 269.168 149.051C283.312 132.283 296.457 115.43 308.083 100.36C309.131 98.9957 310.165 97.6383 311.222 96.3059C318.488 87.0971 325.084 78.6114 334.243 70.977C335.34 70.0505 336.484 69.1561 337.676 68.2936C348.688 60.0063 363.497 54.0003 380.426 50.9555C401.402 47.149 429.271 47.656 451.559 55.2286C454.314 56.1604 456.983 57.1981 459.549 58.3352C470.861 63.4835 480.17 70.1883 486.643 77.8498C494.217 86.6013 498.177 95.758 502.074 104.779C502.864 106.612 503.653 108.452 504.466 110.295C512.858 129.351 523.054 148.683 545.748 165.861C576.523 189.165 631.612 203.441 647.847 230.278C648.414 231.213 648.931 232.159 649.385 233.107C656.006 246.945 650.501 261.792 637.409 273.612C623.389 286.27 601.436 295.75 577.289 302.66" stroke="#EDED69" stroke-width="0.5" stroke-miterlimit="10"/>
<path d="M1.06716 253.437C53.1377 253.637 103.72 246.874 149.388 233.606C175.462 226.09 198.614 215.483 217.649 202.334C229.55 193.934 240.135 184.832 249.279 175.134C256.225 167.939 262.576 160.587 268.534 153.179C282.175 136.185 294.115 118.878 304.566 102.715C305.521 101.267 306.452 99.8163 307.419 98.3692C313.919 88.3771 319.992 78.8687 329.016 70.1832C330.089 69.1477 331.215 68.1268 332.394 67.1206C342.494 58.4955 356.312 51.0106 375.372 46.7974C396.584 42.1088 424.776 42.1844 447.028 49.7387C449.782 50.6777 452.446 51.7253 455.002 52.8746C466.317 58.1262 475.465 65.0112 481.536 72.8464C488.678 81.8594 492.065 91.3194 495.343 100.617C496.016 102.509 496.675 104.407 497.347 106.314C504.383 125.974 513.224 146.047 535.804 163.391C567.113 187.444 624.682 201.632 641.792 229.139C642.382 230.099 642.872 231.058 643.399 232.035C650.399 246.242 644.746 261.511 631.183 273.62C616.69 286.575 593.99 296.221 569.101 303.229" stroke="#EDED69" stroke-width="0.5" stroke-miterlimit="10"/>
<path d="M0.740473 256.123C52.8513 256.981 103.635 250.633 149.416 237.538C175.521 230.151 198.692 219.622 217.694 206.512C229.601 198.153 240.146 189.065 249.194 179.362C256.018 172.149 262.26 164.765 268.003 157.255C280.679 140.325 291.746 122.885 301.153 105.018C301.993 103.453 302.822 101.887 303.662 100.33C309.429 89.5875 314.919 79.0512 323.794 69.3288C324.844 68.1741 325.952 67.0294 327.117 65.8946C337.097 56.1815 351.037 47.5525 370.323 42.5787C391.749 36.9832 420.297 36.6533 442.501 44.1957C445.26 45.1367 447.924 46.1922 450.473 47.3545C462.246 52.7457 470.842 60.1312 476.422 67.7737C483.17 77.0362 486 86.7702 488.605 96.3856C489.148 98.335 489.678 100.299 490.233 102.264C495.971 122.572 503.346 143.377 525.915 160.858C557.695 185.646 617.808 199.743 635.818 227.923C636.443 228.901 637.018 229.897 637.518 230.888C644.885 245.462 639.072 261.154 625.086 273.555C610.145 286.816 586.685 296.628 561.056 303.726" stroke="#EDED69" stroke-width="0.5" stroke-miterlimit="10"/>
<path d="M0.426056 258.81C52.5497 260.314 103.522 254.383 149.418 241.475C196.072 228.236 225.377 208.828 249.072 183.602C271.51 159.715 286.052 133.684 297.687 107.346C303.498 94.1847 308.63 80.8204 318.543 68.5254C328.456 56.2304 343.572 44.8647 365.242 38.4337C386.913 32.0027 415.776 31.1872 437.943 38.7266C453.936 44.1691 464.938 53.241 471.289 62.7834C477.64 72.3258 479.815 82.3177 481.848 92.2288C486.493 115.028 491.348 139.03 516.018 158.408C548.387 183.881 610.904 197.906 629.741 226.744C640.04 242.507 634.285 260 618.874 273.535C603.463 287.069 579.253 297.07 552.895 304.266" stroke="#EDED69" stroke-width="0.5" stroke-miterlimit="10"/>
</svg>
